<?xml version="1.0" encoding="utf-8" ?>
<svg xmlns="http://www.w3.org/2000/svg" xmlns:xlink="http://www.w3.org/1999/xlink" width="12" height="12" viewBox="0 0 12 12">
	<defs>
		<clipPath id="clipPath9284802266">
			<path d="M0 0L12 0L12 12L0 12L0 0Z" fill-rule="nonzero" transform="matrix(1 0 0 1 0 0)"/>
		</clipPath>
	</defs>
	<g clip-path="url(#clipPath9284802266)">
		<path d="M4.46484 0.685547L4.98516 0.165234C5.20547 -0.0550781 5.56172 -0.0550781 5.77969 0.165234L10.3359 4.71914C10.5562 4.93945 10.5562 5.2957 10.3359 5.51367L5.77969 10.0699C5.55938 10.2902 5.20312 10.2902 4.98516 10.0699L4.46484 9.54961C4.24219 9.32695 4.24688 8.96367 4.47422 8.7457L7.29844 6.05508L0.5625 6.05508C0.250781 6.05508 0 5.8043 0 5.49258L0 4.74258C0 4.43086 0.250781 4.18008 0.5625 4.18008L7.29844 4.18008L4.47422 1.48945C4.24453 1.27148 4.23984 0.908203 4.46484 0.685547Z" fill-rule="nonzero" transform="matrix(1 0 0 1 0.75 0.882422)" fill="rgb(255, 255, 255)"/>
	</g>
</svg>
