<?xml version="1.0" encoding="utf-8" ?>
<svg xmlns="http://www.w3.org/2000/svg" xmlns:xlink="http://www.w3.org/1999/xlink" width="74" height="24" viewBox="0 0 74 24">
	<defs>
		<clipPath id="clipPath7036230359">
			<path d="M0 0L24 0L24 22.5882L0 22.5882L0 0Z" fill-rule="nonzero" transform="matrix(1 0 0 1 25 0)"/>
		</clipPath>
	</defs>
	<g clip-path="url(#clipPath7036230359)">
		<path d="M23.285 11.9583L12.8163 11.9583L19.7882 18.5201C20.0547 18.7709 20.4932 18.7913 20.7672 18.5484C22.4745 17.0344 23.6489 14.9936 23.9935 12.6995C24.0526 12.3067 23.7063 11.9583 23.285 11.9583ZM22.5866 9.26766C22.223 4.30738 18.0116 0.343647 12.7413 0.00150146C12.3389 -0.0246577 12.0001 0.29465 12.0001 0.674166L12.0001 9.96524L21.8723 9.96524C22.2755 9.96524 22.6144 9.64635 22.5866 9.26766ZM9.88245 11.9583L9.88245 2.10545C9.88245 1.70891 9.5123 1.38295 9.09539 1.4386C3.83789 2.13783 -0.180786 6.46074 0.00627289 11.6415C0.198626 16.9622 5.06613 21.3254 10.722 21.2585C12.9455 21.2324 15.0001 20.558 16.6894 19.4303C17.0379 19.1978 17.0608 18.7149 16.7586 18.4304L9.88245 11.9583Z" fill-rule="nonzero" transform="matrix(1 0 0 1 24.9999 0.664522)" fill="rgb(160, 195, 52)"/>
	</g>
</svg>
