<?xml version="1.0" encoding="utf-8" ?>
<svg xmlns="http://www.w3.org/2000/svg" xmlns:xlink="http://www.w3.org/1999/xlink" width="24" height="24" viewBox="0 0 24 24">
	<defs>
		<clipPath id="clipPath4482386009">
			<path d="M0 0L24 0L24 24L0 24L0 0Z" fill-rule="nonzero" transform="matrix(1 0 0 1 0 0)"/>
		</clipPath>
	</defs>
	<g clip-path="url(#clipPath4482386009)">
		<path d="M23.5453 5.94375C23.7281 5.79844 24 5.93437 24 6.16406L24 15.75C24 16.9922 22.9922 18 21.75 18L2.25 18C1.00781 18 0 16.9922 0 15.75L0 6.16875C0 5.93437 0.267187 5.80312 0.454687 5.94844C1.50469 6.76406 2.89688 7.8 7.67813 11.2734C8.66719 11.9953 10.3359 13.5141 12 13.5047C13.6734 13.5187 15.375 11.9672 16.3266 11.2734C21.1078 7.8 22.4953 6.75937 23.5453 5.94375ZM12 12C13.0875 12.0187 14.6531 10.6312 15.4406 10.0594C21.6609 5.54531 22.1344 5.15156 23.5687 4.02656C23.8406 3.81562 24 3.4875 24 3.14062L24 2.25C24 1.00781 22.9922 0 21.75 0L2.25 0C1.00781 -7.15256e-07 0 1.00781 0 2.25L0 3.14062C0 3.4875 0.159375 3.81094 0.43125 4.02656C1.86562 5.14687 2.33906 5.54531 8.55937 10.0594C9.34688 10.6312 10.9125 12.0187 12 12Z" fill-rule="nonzero" transform="matrix(1 0 0 1 0 3)" fill="rgb(107, 114, 128)"/>
	</g>
</svg>
