<?xml version="1.0" encoding="utf-8" ?>
<svg xmlns="http://www.w3.org/2000/svg" xmlns:xlink="http://www.w3.org/1999/xlink" width="24" height="19.2" viewBox="0 0 24 19.2">
	<defs>
		<clipPath id="clipPath6271239000">
			<path d="M0 0L24 0L24 19.2L0 19.2L0 0Z" fill-rule="nonzero" transform="matrix(1 0 0 1 0 0)"/>
		</clipPath>
	</defs>
	<g clip-path="url(#clipPath6271239000)">
		<path d="M23.3376 2.67607L12.8773 0.105075C12.3073 -0.035025 11.6923 -0.035025 11.1227 0.105075L0.662063 2.67607C-0.220688 2.89297 -0.220688 3.82688 0.662063 4.04378L2.48569 4.49198C2.08556 4.88768 1.83956 5.37038 1.81519 5.89898C1.45406 6.06458 1.19981 6.36337 1.19981 6.72008C1.19981 7.04348 1.41281 7.31558 1.71956 7.48958L0.762188 10.936C0.678938 11.2357 0.963937 11.5201 1.34756 11.5201L3.45169 11.5201C3.83569 11.5201 4.12069 11.2357 4.03744 10.936L3.08006 7.48958C3.38681 7.31558 3.59981 7.04348 3.59981 6.72008C3.59981 6.37297 3.35719 6.08258 3.01256 5.91398C3.04106 5.46338 3.32906 5.06498 3.78844 4.81238L11.1223 6.61508C11.4621 6.69847 12.1138 6.80258 12.8769 6.61508L23.3376 4.04408C24.2207 3.82688 24.2207 2.89328 23.3376 2.67607ZM13.2294 7.53278C12.1596 7.79558 11.2479 7.65038 10.7698 7.53278L5.33156 6.19628L4.79981 9.60008C4.79981 10.6606 8.02331 11.5201 11.9998 11.5201C15.9763 11.5201 19.1998 10.6606 19.1998 9.60008L18.6681 6.19598L13.2294 7.53278Z" fill-rule="nonzero" transform="matrix(1 0 0 1 0.000190735 3.83984)" fill="rgb(107, 114, 128)"/>
	</g>
</svg>
