<?xml version="1.0" encoding="utf-8" ?>
<svg xmlns="http://www.w3.org/2000/svg" xmlns:xlink="http://www.w3.org/1999/xlink" width="48" height="48" viewBox="0 0 48 48">
	<path d="M24 0C10.7452 0 0 10.7452 0 24L0 24.036C0 37.2908 10.7092 48 23.964 48L24 48C37.2548 48 48 37.2908 48 24.036L48 24C48 10.7452 37.2908 0 24.036 0L24 0Z" fill-rule="nonzero" transform="matrix(1 0 0 1 0 0)" fill="rgb(0, 100, 148)"/>
	<defs>
		<clipPath id="clipPath9622680464">
			<path d="M0 0L24 0L24 24L0 24L0 0Z" fill-rule="nonzero" transform="matrix(1 0 0 1 12 12)"/>
		</clipPath>
	</defs>
	<g clip-path="url(#clipPath9622680464)">
		<path d="M21 16.875L21 1.125C21 0.501562 20.4984 0 19.875 0L4.5 0C2.01562 0 0 2.01562 0 4.5L0 19.5C0 21.9844 2.01562 24 4.5 24L19.875 24C20.4984 24 21 23.4984 21 22.875L21 22.125C21 21.7734 20.8359 21.4547 20.5828 21.2484C20.3859 20.5266 20.3859 18.4688 20.5828 17.7469C20.8359 17.5453 21 17.2266 21 16.875ZM6 6.28125C6 6.12656 6.12656 6 6.28125 6L16.2188 6C16.3734 6 16.5 6.12656 16.5 6.28125L16.5 7.21875C16.5 7.37344 16.3734 7.5 16.2188 7.5L6.28125 7.5C6.12656 7.5 6 7.37344 6 7.21875L6 6.28125ZM6 9.28125C6 9.12656 6.12656 9 6.28125 9L16.2188 9C16.3734 9 16.5 9.12656 16.5 9.28125L16.5 10.2188C16.5 10.3734 16.3734 10.5 16.2188 10.5L6.28125 10.5C6.12656 10.5 6 10.3734 6 10.2188L6 9.28125ZM17.8781 21L4.5 21C3.67031 21 3 20.3297 3 19.5C3 18.675 3.675 18 4.5 18L17.8781 18C17.7891 18.8016 17.7891 20.1984 17.8781 21Z" fill-rule="nonzero" transform="matrix(1 0 0 1 13.5 12)" fill="rgb(255, 255, 255)"/>
	</g>
</svg>
