<?xml version="1.0" encoding="utf-8" ?>
<svg xmlns="http://www.w3.org/2000/svg" xmlns:xlink="http://www.w3.org/1999/xlink" width="24" height="21.3333" viewBox="0 0 24 21.3333">
	<defs>
		<clipPath id="clipPath5592344594">
			<path d="M0 0L24 0L24 21.3333L0 21.3333L0 0Z" fill-rule="nonzero" transform="matrix(1 0 0 1 0 0)"/>
		</clipPath>
	</defs>
	<g clip-path="url(#clipPath5592344594)">
		<path d="M11.683 4.30407L4.00091 9.92815L4.00091 15.9981C4.00091 16.1618 4.066 16.3015 4.19618 16.4172C4.32635 16.5329 4.48349 16.5907 4.66758 16.5907L9.33675 16.58C9.52019 16.5792 9.67661 16.521 9.806 16.4054C9.93539 16.2898 10.0001 16.1505 10.0001 15.9874L10.0001 12.4426C10.0001 12.279 10.0652 12.1393 10.1953 12.0236C10.3255 11.9079 10.4827 11.85 10.6667 11.85L13.3334 11.85C13.5175 11.85 13.6746 11.9079 13.8048 12.0236C13.935 12.1393 14.0001 12.279 14.0001 12.4426L14.0001 15.9848C13.9995 16.1488 14.0643 16.2889 14.1946 16.405C14.3249 16.5212 14.4822 16.5793 14.6667 16.5793L19.3342 16.5907C19.5183 16.5907 19.6755 16.5329 19.8057 16.4172C19.9358 16.3015 20.0009 16.1618 20.0009 15.9981L20.0009 9.92407L12.3205 4.30407C12.2275 4.23742 12.1212 4.2041 12.0017 4.2041C11.8823 4.2041 11.776 4.23742 11.683 4.30407ZM23.8176 8.12667L20.3342 5.57444L20.3342 0.444444C20.3342 0.321714 20.2854 0.216958 20.1878 0.130175C20.0902 0.0433916 19.9723 0 19.8342 0L17.5009 0C17.3628 0 17.245 0.0433916 17.1474 0.130175C17.0497 0.216958 17.0009 0.321715 17.0009 0.444444L17.0009 3.1337L13.2705 0.405556C12.9013 0.135534 12.4777 0.000523461 11.9997 0.000523461C11.5216 0.000523461 11.098 0.135534 10.7288 0.405556L0.181747 8.12667C0.0752782 8.20489 0.0155343 8.30512 0.00251524 8.42735C-0.0105038 8.54959 0.0270179 8.658 0.11508 8.75259L1.17758 9.90074C1.26541 9.99567 1.37815 10.049 1.51579 10.0608C1.65342 10.0726 1.77555 10.0394 1.88216 9.96111L11.683 2.78556C11.776 2.71891 11.8823 2.68558 12.0017 2.68558C12.1212 2.68558 12.2275 2.71891 12.3205 2.78556L22.1217 9.96111C22.2282 10.0394 22.3501 10.0727 22.4876 10.0612C22.6252 10.0496 22.7379 9.99649 22.8259 9.90185L23.8884 8.7537C23.9764 8.65854 24.0135 8.54967 23.9996 8.4271C23.9858 8.30453 23.9251 8.20438 23.8176 8.12667Z" fill-rule="nonzero" transform="matrix(1 0 0 1 -0.00091362 2.37218)" fill="rgb(0, 100, 148)"/>
	</g>
</svg>
