<?xml version="1.0" encoding="utf-8" ?>
<svg xmlns="http://www.w3.org/2000/svg" xmlns:xlink="http://www.w3.org/1999/xlink" width="48" height="48" viewBox="0 0 48 48">
	<path d="M24 0C10.7452 0 0 10.7452 0 24L0 24.036C0 37.2908 10.7092 48 23.964 48L24 48C37.2548 48 48 37.2908 48 24.036L48 24C48 10.7452 37.2908 0 24.036 0L24 0Z" fill-rule="nonzero" transform="matrix(1 0 0 1 0 0)" fill="rgb(160, 195, 52)"/>
	<defs>
		<clipPath id="clipPath1407644154">
			<path d="M0 0L24 0L24 21.3333L0 21.3333L0 0Z" fill-rule="nonzero" transform="matrix(1 0 0 1 12 13.3333)"/>
		</clipPath>
	</defs>
	<g clip-path="url(#clipPath1407644154)">
		<path d="M22.7561 0.360135C22.5227 -0.102828 21.8561 -0.121346 21.5769 0.315691C20.2852 2.31199 17.9727 3.55643 15.3311 3.55643L11.9977 3.55643C7.58105 3.55643 3.99772 6.74162 3.99772 10.6675C3.99772 10.9268 4.03105 11.1749 4.06022 11.4268C6.71855 9.73421 10.5561 8.29717 15.9977 8.29717C16.3644 8.29717 16.6644 8.56384 16.6644 8.88976C16.6644 9.21569 16.3644 9.48236 15.9977 9.48236C5.52272 9.48236 1.08105 15.1898 0.0977203 17.3342C-0.17728 17.9379 0.14772 18.6268 0.826887 18.8749C1.51022 19.1268 2.28522 18.8342 2.56855 18.2342C2.63105 18.1009 3.43939 16.4601 5.56439 14.8787C6.91439 16.5046 9.48105 18.0564 12.8519 17.7379C19.3936 17.3157 23.9977 12.1009 23.9977 5.71569C23.9977 3.85643 23.5477 1.93051 22.7561 0.360135Z" fill-rule="nonzero" transform="matrix(1 0 0 1 12.0023 14.5176)" fill="rgb(255, 255, 255)"/>
	</g>
</svg>
