<?xml version="1.0" encoding="utf-8" ?>
<svg xmlns="http://www.w3.org/2000/svg" xmlns:xlink="http://www.w3.org/1999/xlink" width="48" height="48" viewBox="0 0 48 48">
	<path d="M24 0C10.7452 0 0 10.7452 0 24L0 24.036C0 37.2908 10.7092 48 23.964 48L24 48C37.2548 48 48 37.2908 48 24.036L48 24C48 10.7452 37.2908 0 24.036 0L24 0Z" fill-rule="nonzero" transform="matrix(1 0 0 1 0 0)" fill="rgb(160, 195, 52)"/>
	<defs>
		<clipPath id="clipPath1906160630">
			<path d="M0 0L24 0L24 19.2L0 19.2L0 0Z" fill-rule="nonzero" transform="matrix(1 0 0 1 12 14.4)"/>
		</clipPath>
	</defs>
	<g clip-path="url(#clipPath1906160630)">
		<path d="M18.3009 5.75935L12.6009 5.75935L12.6009 7.43935C12.6009 8.63035 11.3896 9.59935 9.90086 9.59935C8.4121 9.59935 7.20086 8.63035 7.20086 7.43935L7.20086 3.79135L4.76711 4.96135C4.04335 5.30635 3.60086 5.93335 3.60086 6.60535L3.60086 8.02435L0.600855 9.41035C0.0271053 9.67435 -0.171645 10.2624 0.162105 10.7214L3.16211 14.8794C3.49211 15.3384 4.22711 15.4944 4.80086 15.2304L8.67836 13.4394L13.8009 13.4394C15.1246 13.4394 16.2009 12.5784 16.2009 11.5194L16.8009 11.5194C17.4646 11.5194 18.0009 11.0904 18.0009 10.5594L18.0009 8.63935L18.3009 8.63935C18.7996 8.63935 19.2009 8.31835 19.2009 7.91935L19.2009 6.47935C19.2009 6.08035 18.7996 5.75935 18.3009 5.75935ZM23.8396 4.63735L20.8396 0.479351C20.5096 0.020351 19.7746 -0.135649 19.2009 0.128351L15.3234 1.91935L11.4909 1.91935C11.0409 1.91935 10.6021 2.02135 10.2196 2.21035L8.96336 2.83735C8.61086 3.01135 8.40086 3.32035 8.40086 3.65035L8.40086 7.43935C8.40086 8.10235 9.0721 8.63935 9.90086 8.63935C10.7296 8.63935 11.4009 8.10235 11.4009 7.43935L11.4009 4.79935L18.3009 4.79935C19.4596 4.79935 20.4009 5.55235 20.4009 6.47935L20.4009 7.33435L23.4009 5.94835C23.9746 5.68135 24.1696 5.09635 23.8396 4.63735Z" fill-rule="nonzero" transform="matrix(1 0 0 1 11.9991 16.3207)" fill="rgb(255, 255, 255)"/>
	</g>
</svg>
