<?xml version="1.0" encoding="utf-8" ?>
<svg xmlns="http://www.w3.org/2000/svg" xmlns:xlink="http://www.w3.org/1999/xlink" width="28" height="28" viewBox="0 0 28 28">
	<defs>
		<clipPath id="clipPath4261488801">
			<path d="M0 0L28 0L28 28L0 28L0 0Z" fill-rule="nonzero" transform="matrix(1 0 0 1 0 0)"/>
		</clipPath>
	</defs>
	<g clip-path="url(#clipPath4261488801)">
		<path d="M5.48406 24.4995L0.404687 24.4995L0.404687 8.14242L5.48406 8.14242L5.48406 24.4995ZM2.94164 5.91117C1.31742 5.91117 0 4.56586 0 2.94164C0 2.12933 0.287196 1.43598 0.861587 0.861587C1.43598 0.287196 2.12933 0 2.94164 0C3.75395 0 4.4473 0.287196 5.02169 0.861587C5.59609 1.43598 5.88328 2.12933 5.88328 2.94164C5.88328 4.56586 4.56531 5.91117 2.94164 5.91117ZM24.4945 24.4995L19.4261 24.4995L19.4261 16.537C19.4261 14.6393 19.3878 12.2057 16.7852 12.2057C14.1444 12.2057 13.7397 14.2674 13.7397 16.4002L13.7397 24.4995L8.66578 24.4995L8.66578 8.14242L13.5373 8.14242L13.5373 10.3737L13.6084 10.3737C14.2866 9.08852 15.943 7.73227 18.4144 7.73227C23.555 7.73227 24.5 11.1174 24.5 15.5143L24.5 24.4995L24.4945 24.4995Z" fill-rule="nonzero" transform="matrix(1 0 0 1 1.75 0.000546696)" fill="rgb(0, 100, 148)"/>
	</g>
</svg>
