<?xml version="1.0" encoding="UTF-8" standalone="no"?>
<!-- Created with Inkscape (http://www.inkscape.org/) -->

<svg
   version="1.1"
   id="svg1"
   width="1066.6667"
   height="533.33331"
   viewBox="0 0 1066.6667 533.33331"
   xmlns="http://www.w3.org/2000/svg"
   xmlns:svg="http://www.w3.org/2000/svg">
  <defs
     id="defs1" />
  <g
     id="g1">
    <g
       id="g9"
       transform="translate(2.8293548,-16.033009)">
      <path
         style="fill:#cbdae7"
         d="m 285.3621,456.14549 c -10.04586,-3.58759 -19.06957,-13.10229 -22.00606,-23.20346 -1.87614,-6.45369 -2.10294,-14.4078 -1.68802,-59.19873 0.5179,-55.90701 0.64232,-56.95888 8.03458,-67.92386 6.06272,-8.99288 14.00558,-12.80888 28.21338,-13.5546 15.95108,-0.83721 24.44852,1.92192 33.33297,10.8233 9.1496,9.16703 10.75108,14.86403 10.75108,38.24518 v 18 h -16.66667 -16.66667 l -0.37805,-15.94442 c -0.2951,-12.44617 -0.85238,-16.46856 -2.53998,-18.33334 -2.80168,-3.09581 -5.11819,-3.01935 -8.4153,0.27776 -2.56651,2.56651 -2.66667,4.44445 -2.66667,50 0,45.55555 0.10016,47.43349 2.66667,50 3.17093,3.17093 4.01164,3.25919 7.41182,0.77808 2.29332,-1.67343 2.66413,-4.06584 3.25484,-21 l 0.66667,-19.11141 17,-0.37317 17,-0.37317 v 19.30754 c 0,22.80395 -1.42233,30.61956 -7.11514,39.09717 -6.28489,9.35933 -15.86153,13.8357 -31.12208,14.54727 -9.31591,0.43438 -13.28226,0.006 -19.06737,-2.06014 z m 97.74787,0.0531 c -13.94392,-4.81866 -21.7221,-14.86644 -24.4623,-31.60011 -1.83607,-11.21236 -1.68872,-93.36745 0.1833,-102.1995 4.18237,-19.73214 15.41178,-28.96839 36.62421,-30.12362 19.24792,-1.04824 31.57432,4.92417 38.92409,18.85957 l 3.62076,6.86509 v 56 55.99999 l -3.1858,7.05024 c -8.13571,18.00446 -30.76409,26.38474 -51.70426,19.14834 z m 17.69046,-29.21899 c 4.14829,-2.7699 4.53293,-7.258 4.53293,-52.89193 0,-44.30987 -0.10286,-46.19052 -2.66666,-48.75432 -3.21002,-3.21001 -3.88979,-3.26217 -7.70333,-0.59106 l -2.96334,2.0756 v 47.9244 c 0,46.14661 0.0989,48.02331 2.66667,50.59106 2.88613,2.88613 3.8781,3.15237 6.13373,1.64625 z m 268.13652,29.76398 c -13.25664,-4.72876 -20.71557,-13.06244 -24.32007,-27.17222 -3.17832,-12.44149 -2.24575,-101.4389 1.17199,-111.84584 5.45971,-16.6247 16.51761,-24.58058 35.37382,-25.45054 14.64139,-0.67551 24.50133,2.65217 32.9796,11.13044 8.19821,8.1982 10.03615,15.51455 9.56444,38.07344 l -0.37334,17.85449 h -16 -16 l -0.81421,-16.66667 c -0.44782,-9.16666 -0.89782,-16.79555 -1,-16.95308 -0.10219,-0.15754 -1.40846,-0.94078 -2.90282,-1.74054 -4.25184,-2.27551 -7.71639,-0.36066 -9.23404,5.10364 -1.49173,5.371 -1.94977,83.75249 -0.53087,90.84695 0.93173,4.65868 5.60943,8.58331 8.78013,7.3666 3.85114,-1.47783 5.03514,-7.28272 5.03514,-24.68631 v -17.27059 h 16.77256 16.77256 l -0.44226,24.33333 c -0.50286,27.66698 -1.56959,31.29324 -11.77521,40.02887 -9.41346,8.05757 -30.5349,11.51492 -43.05742,7.04803 z M 457.96148,455.7079 c -0.35926,-0.93936 -0.49755,-37.70792 -0.30732,-81.70791 l 0.34587,-80 17.51123,-0.37095 17.51122,-0.37095 0.88363,5.03761 c 1.24184,7.07976 11.13957,59.1388 11.85828,62.37095 0.32614,1.46667 0.66258,-13.08333 0.74765,-32.33333 l 0.15467,-35 h 16.67691 16.67692 l -0.34358,81.66667 -0.34359,81.66666 h -16.61055 -16.61055 l -6.90818,-34 -6.90818,-34 -0.48127,34 -0.48127,34 -16.35935,0.37458 c -12.34719,0.28271 -16.51955,-0.0443 -17.01254,-1.33333 z m 101.59412,0.73653 c -0.48889,-0.48889 -0.88889,-37.38889 -0.88889,-82 v -81.11111 h 33.33334 33.33333 v 16 16 h -16 -16 v 15.33333 15.33334 h 15.33333 15.33334 v 16 16 h -15.33334 -15.33333 v 17.99999 18 h 17.33333 17.33334 v 16.66667 16.66667 h -33.77778 c -18.57778,0 -34.17778,-0.4 -34.66667,-0.88889 z m 195.11112,-65.11111 v -66 h -9.33333 -9.33333 v -16 -16 h 36 36 v 16 16 h -9.33333 -9.33334 v 66 66 h -17.33333 -17.33334 z m 63.98024,63.7077 c -0.0182,-2.18351 1.84886,-21.81999 11.82553,-124.37437 l 3.567,-36.66666 28.31362,-0.35985 c 19.08588,-0.24257 28.31362,0.0957 28.31362,1.03792 0,0.76877 0.87711,9.93071 1.94912,20.35985 1.07202,10.42914 3.19995,32.76208 4.72875,49.62874 1.5288,16.86667 3.9517,42.20298 5.38422,56.30291 1.43252,14.09993 2.60458,28.04993 2.60458,30.99999 v 5.36377 h -15.82824 -15.82824 l -0.94528,-13.33334 -0.94529,-13.33333 h -9.12035 -9.12035 l -0.7776,8.33333 c -0.42769,4.58334 -0.92544,10.43334 -1.10613,13 l -0.32852,4.66667 -16.33334,0.37437 c -14.90827,0.34171 -16.33506,0.16721 -16.3531,-2 z m 50.10561,-54.04104 c -0.3474,-1.65 -1.9903,-20.09999 -3.6509,-40.99999 -1.66059,-20.9 -3.18092,-37.1 -3.3785,-36 -0.3857,2.1473 -5.7231,75.01247 -5.7231,78.13059 0,1.35534 1.84023,1.8694 6.69207,1.8694 6.23818,0 6.64923,-0.20347 6.06043,-3 z M 189.32626,453.56469 C 184.32372,451.92608 174.758,433.52816 166.43794,409.54314 147.32137,354.43403 155.38907,286.45613 187.28975,233.8472 236.69541,152.36999 331.5554,97.47323 449.33337,82.199034 c 25.82361,-3.34897 30.5549,-3.621339 63.4794,-3.654354 63.43863,-0.06361 114.609,9.015033 168.52062,29.89892 18.15929,7.03442 54.72747,25.28727 70,34.94021 38.08829,24.07354 77.27598,59.79716 97.81733,89.17056 10.24098,14.64425 6.9697,13.76066 -13.57425,-3.66649 -27.41191,-23.25314 -45.37422,-35.08878 -78.23691,-51.55146 -56.54214,-28.325 -111.98488,-44.91285 -172.00618,-51.46231 -27.56757,-3.00815 -76.68,-1.9798 -101.33334,2.1218 -75.39609,12.54369 -131.86441,47.32941 -160.19108,98.68119 -7.58939,13.75836 -12.76186,34.2832 -13.03263,51.71464 l -0.10964,7.05841 -9.61115,-0.39175 -9.61114,-0.39174 -1.15741,-5.33334 c -0.63657,-2.93333 -0.87571,-14.33333 -0.53143,-25.33333 0.70711,-22.59243 2.91941,-32.26894 11.69267,-51.14316 5.94474,-12.78913 13.31071,-24.13137 22.97,-35.36961 7.73357,-8.99775 6.95724,-8.74693 -13.07064,4.22277 -19.04635,12.3341 -27.4328,19.01272 -43.84009,34.91246 -24.4848,23.72739 -39.63712,44.15711 -52.93931,71.37754 -15.05469,30.8066 -19.85201,50.41365 -20.87874,85.33333 -0.81793,27.81781 0.39075,39.14404 6.90709,64.72468 4.00165,15.70892 4.3432,18.29232 2.74425,20.7568 -1.90678,2.93894 -10.57455,5.87668 -14.01453,4.74989 z M 463.67404,280.57453 c -2.01264,-1.09194 -5.01264,-4.51792 -6.66667,-7.61328 -2.89062,-5.4095 -3.00734,-6.92163 -3.00734,-38.96126 0,-29.79737 0.26258,-33.8615 2.47529,-38.31231 4.58653,-9.22572 16.15617,-13.40149 28.75615,-10.3788 10.69317,2.56525 14.55702,8.6691 16.68498,26.35778 l 0.8421,7 h -10.71259 -10.71259 v -7.33333 c 0,-6.84591 -0.21208,-7.33334 -3.19068,-7.33334 -1.75488,0 -3.55488,0.94907 -4,2.10905 -1.40714,3.66693 -0.90248,52.55887 0.57092,55.31194 3.64027,6.8019 7.95309,0.56143 7.95309,-11.50779 0,-6.35764 -0.3271,-7.24653 -2.66666,-7.24653 -2.39317,0 -2.66667,-0.88889 -2.66667,-8.66667 v -8.66667 h 12 12 v 28.66667 28.66667 h -4.02858 c -2.9556,0 -4.41592,-0.8501 -5.48283,-3.19171 l -1.45424,-3.1917 -4.70324,3.1917 c -5.53256,3.7545 -16.12112,4.28396 -21.99044,1.09958 z m 51.93442,1.2561 c -0.51797,-0.51796 -0.94175,-22.44175 -0.94175,-48.71953 v -47.77777 h 18.56436 c 17.99848,0 18.68869,0.1046 22.64259,3.43159 5.44156,4.57877 7.18188,11.14186 6.60549,24.91056 -0.3979,9.50474 -0.97058,11.97117 -3.37865,14.55122 -2.87309,3.07829 -2.87614,3.13534 -0.33333,6.25434 2.30776,2.8307 2.56621,5.42151 2.56621,25.72507 v 22.57737 l -9.66667,-0.39174 -9.66667,-0.39175 -0.66667,-21.31738 c -0.58824,-18.80966 -0.93721,-21.36922 -2.96653,-21.75799 -2.08981,-0.40036 -2.33337,1.54663 -2.66667,21.31738 l -0.3668,21.75799 -9.39158,0.38619 c -5.16537,0.21241 -9.81537,-0.0376 -10.33333,-0.55555 z m 26.39158,-69.83064 c 0,-6.5898 -0.30417,-7.37653 -3,-7.7594 -2.8316,-0.40215 -3,0.0334 -3,7.7594 0,7.72599 0.1684,8.16155 3,7.7594 2.69583,-0.38287 3,-1.16959 3,-7.7594 z m 43.31254,68.20073 c -2.65628,-1.4099 -6.07336,-4.97864 -7.9792,-8.33333 -3.32012,-5.84413 -3.33518,-6.02759 -3.7976,-46.25917 l -0.46427,-40.39178 10.46427,0.39178 10.46427,0.39177 0.66666,38.66667 c 0.6423,37.25318 0.76195,38.66666 3.27322,38.66666 1.64418,0 2.94889,-1.23071 3.53376,-3.33333 0.50997,-1.83333 0.98702,-19.38333 1.06012,-39 l 0.1329,-35.66666 h 9.33334 9.33333 v 40.38414 c 0,39.25748 -0.0837,40.54737 -3,46.23468 -1.86391,3.63495 -4.75937,6.77151 -7.64586,8.28252 -6.27029,3.28233 -19.1595,3.26509 -25.37494,-0.034 z m 50.24302,1.57705 c -0.48888,-0.48889 -0.88888,-22.38889 -0.88888,-48.66667 v -47.77777 h 16.35413 c 13.33902,0 17.19826,0.4527 20.93269,2.4555 6.80476,3.64943 9.81537,10.59884 10.45951,24.14381 0.67523,14.19847 -1.28584,21.87353 -7.06579,27.65348 -4.0315,4.03149 -5.11848,4.41387 -12.54721,4.41387 h -8.13333 v 19.33333 19.33334 h -9.11112 c -5.01111,0 -9.51111,-0.4 -10,-0.88889 z m 25.73087,-59.02346 c 0.75914,-1.41845 1.38025,-5.0579 1.38025,-8.08765 0,-6.81351 -1.94353,-10.66667 -5.38025,-10.66667 -2.3858,0 -2.61975,0.95256 -2.61975,10.66667 0,9.71411 0.23395,10.66666 2.61975,10.66666 1.44087,0 3.24087,-1.16055 4,-2.57901 z m 44.03343,57.31899 c -2.66207,-1.40807 -6.11168,-4.976 -8,-8.27441 -3.21739,-5.61993 -3.33348,-6.70796 -3.76155,-35.25396 -0.50874,-33.92543 0.28151,-38.69847 7.62253,-46.03948 10.89953,-10.89954 30.96724,-7.69744 38.61253,6.16121 1.88442,3.4159 2.20665,8.77018 2.20665,36.66666 0,32.39092 -0.0281,32.7162 -3.33334,38.53407 -1.90583,3.35469 -5.32292,6.92343 -7.9792,8.33333 -6.20399,3.29296 -19.02282,3.22857 -25.36762,-0.12742 z m 15.70592,-46.52024 0.3591,-29.74529 -3.02577,0.42944 c -3.0223,0.42896 -3.02618,0.46147 -3.38706,28.39499 -0.19871,15.38105 -0.0505,28.7754 0.3293,29.76521 0.37983,0.98982 1.74241,1.59745 3.02797,1.3503 2.1313,-0.40974 2.36902,-3.07169 2.69646,-30.19465 z"
         id="path15" />
      <path
         style="fill:#b2c8db"
         d="m 290.00002,457.5006 c -11.09576,-2.94912 -19.3256,-9.62725 -24.85331,-20.16728 l -3.14669,-6 v -54 c 0,-62.25972 0.16437,-63.35974 11.16574,-74.72351 7.83985,-8.09812 17.36333,-11.22866 31.39508,-10.32015 16.50081,1.06837 27.66912,7.84253 33.5948,20.37699 2.86711,6.06475 3.15284,8.44233 3.16469,26.33334 l 0.013,19.66666 h -16.66667 -16.66667 v -15.90476 c 0,-12.68109 -0.42467,-16.32943 -2.09523,-18 -2.67604,-2.67603 -6.46683,-2.67603 -9.14286,0 -1.82701,1.82701 -2.09524,8.228 -2.09524,50 0,46.12698 0.099,48.00372 2.66667,50.57143 3.29873,3.29873 5.61371,3.37348 8.42062,0.27188 1.73956,-1.92219 2.24081,-6.06643 2.53998,-21 l 0.37273,-18.60521 H 325.33333 342 l -0.0571,21.33333 c -0.0448,16.70416 -0.5634,22.81942 -2.39019,28.18189 -2.91022,8.54286 -11.1342,16.94888 -19.42752,19.85755 -7.05386,2.47396 -24.25237,3.68875 -30.12515,2.12784 z m 96.29001,-0.20429 c -7.85173,-1.98135 -12.212,-4.70781 -17.9452,-11.22107 -9.91373,-11.26259 -10.3448,-14.29376 -10.3448,-72.74192 0,-50.4303 0.0538,-51.46638 3.05702,-58.89637 3.34432,-8.2738 10.74229,-15.96687 18.75689,-19.50511 3.35882,-1.48283 8.95747,-2.16127 18.18609,-2.20377 12.03789,-0.0555 14.08765,0.30898 21.09708,3.75081 5.01843,2.4642 9.1485,5.72382 11.67981,9.2182 7.46693,10.30779 7.88978,13.97391 7.88978,68.40446 0,45.61292 -0.21204,50.30147 -2.62717,58.09133 -5.12383,16.52665 -16.51059,25.04816 -34.6093,25.90056 -5.55328,0.26154 -12.36637,-0.0972 -15.1402,-0.79712 z m 15.78849,-31.18772 c 2.46543,-1.80169 2.60632,-4.14885 2.97064,-49.49238 0.33195,-41.31402 0.10777,-48.02024 -1.6974,-50.77527 -2.56967,-3.92182 -6.13554,-4.06086 -9.47841,-0.36958 -2.36551,2.61204 -2.56824,5.70319 -2.95135,44.99999 -0.22625,23.20742 -0.0406,44.73813 0.41264,47.84604 1.26971,8.70719 5.39591,11.69941 10.74388,7.7912 z m 266.5779,30.25377 c -10.30998,-3.70672 -16.09544,-8.89585 -20.98067,-18.81811 l -4.34237,-8.81967 v -50.02896 c 0,-44.0933 0.28496,-51.05722 2.40177,-58.69563 4.84503,-17.48302 15.00499,-26.10217 32.49489,-27.56685 19.02058,-1.59286 33.31769,4.78378 40.9611,18.26901 4.04443,7.13558 4.14704,7.74992 4.61513,27.63117 l 0.47872,20.33333 h -16.80913 -16.80914 v -15.18562 c 0,-12.91946 -0.37712,-15.65134 -2.52711,-18.30647 -2.16224,-2.67025 -3.06839,-2.93049 -6.27604,-1.80241 -2.23572,0.78626 -4.12206,2.65907 -4.67332,4.6398 -1.50448,5.4057 -1.33479,88.08056 0.19207,93.57802 1.51765,5.4643 4.9822,7.37915 9.23404,5.10363 1.49436,-0.79976 2.80829,-1.583 2.91984,-1.74053 0.11155,-0.15753 0.56155,-8.98642 1,-19.61975 l 0.79719,-19.33333 16.33333,-0.37438 16.33334,-0.37437 v 21.13237 c 0,24.60089 -1.69632,32.39212 -8.75306,40.20309 -6.37735,7.05896 -15.64207,10.7442 -28.99103,11.53178 -8.40667,0.49599 -12.46056,0.0915 -17.59955,-1.75612 z M 458.6667,375.29348 v -82.03983 l 16.93517,0.37317 16.93516,0.37317 1.7921,8.66667 c 0.98565,4.76666 4.09601,20.36666 6.9119,34.66666 l 5.11981,26 0.15293,-35 0.15294,-35 h 16 16 v 82 82 h -15.85735 c -11.46773,0 -16.02825,-0.46137 -16.47472,-1.66667 -0.33955,-0.91667 -3.85374,-17.86667 -7.80932,-37.66667 l -7.19195,-35.99999 -0.3541,37.66666 -0.35409,37.66667 H 474.64594 458.6667 Z m 101.33334,0.0627 v -82.02289 h 32.66667 32.66667 v 16 16 h -16 -16 v 15.33333 15.33334 h 15.33333 15.33334 v 16 16 h -15.33334 -15.33333 v 17.96016 17.96016 l 17,0.37317 17,0.37317 v 16 16 l -33.66667,0.35623 -33.66667,0.35623 z m 195.59452,81.12716 c -0.51031,-0.51031 -0.92784,-30.22783 -0.92784,-66.03894 v -65.11111 h -9.33333 -9.33333 v -16 -16 h 36 36 v 16 16 h -9.32077 -9.32077 l -0.3459,65.66667 -0.34589,65.66666 -16.07217,0.37227 c -8.8397,0.20476 -16.4897,-0.0452 -17,-0.55555 z m 63.07217,0.11272 c 0,-0.45062 1.84617,-20.11909 4.1026,-43.7077 2.25643,-23.58862 5.70789,-59.9884 7.66991,-80.8884 l 3.56732,-38 28.33009,-0.35985 c 22.19816,-0.28196 28.33144,0.007 28.33637,1.33333 0.003,0.93125 1.52009,17.59318 3.37031,37.02652 7.92802,83.2702 11.27075,119.52225 11.2801,122.33333 0.01,2.93675 -0.31139,3 -15.23351,3 -17.56246,0 -16.07404,1.33505 -17.46649,-15.66667 l -0.90091,-11 h -9.09862 -9.09862 l -0.77145,7 c -0.4243,3.85 -0.91747,9.7 -1.09594,13 l -0.32449,6 -16.33334,0.37437 c -8.98333,0.20591 -16.33333,0.006 -16.33333,-0.44493 z m 50.21997,-58.26277 c -0.41221,-3.11667 -2.11974,-21.56667 -3.79451,-41 -2.78947,-32.36785 -3.12088,-34.49405 -3.94868,-25.33333 -1.64745,18.23108 -3.73306,44.47974 -4.63494,58.33333 l -0.88972,13.66666 h 7.00867 7.00866 z m -684.13682,50.56092 c -1.86222,-2.44149 -6.00961,-10.09149 -9.21642,-17 -31.14262,-67.09129 -24.36122,-143.42774 18.46842,-207.89425 40.09259,-60.34673 104.70791,-104.22944 188.21955,-127.827024 62.7315,-17.725815 129.5348,-22.257085 197.77861,-13.415331 91.2281,11.819626 174.67107,51.704185 237.15357,113.356035 18.60377,18.35646 39.16828,44.00894 37.01017,46.16705 -0.8948,0.8948 -0.6698,1.066 -21.59619,-16.43289 -54.2816,-45.3909 -133.0621,-80.75403 -211.90088,-95.11843 -28.17486,-5.13345 -40.71473,-6.06395 -80.66667,-5.98572 -34.09961,0.0668 -41.58229,0.4632 -56.235,2.97931 -55.98893,9.61421 -100.85357,30.80444 -132.97186,62.80457 -25.4494,25.35577 -37.04126,49.6098 -39.89442,83.47243 l -0.89874,10.66667 -8.95954,0.39333 c -8.80427,0.38651 -8.97757,0.32875 -10,-3.33334 -0.57225,-2.04966 -0.98993,-13.32666 -0.92817,-25.05999 0.10063,-19.11904 0.48198,-22.54899 3.674,-33.04545 6.64763,-21.85965 15.64954,-38.20617 30.96462,-56.22846 4.33446,-5.10065 6.9887,-8.73477 5.8983,-8.07582 -31.71462,19.16582 -48.52374,32.04742 -68.98485,52.86628 -29.21417,29.72497 -46.96091,58.09744 -59.08063,94.45474 -6.11034,18.33007 -7.58173,26.89859 -9.09687,52.9748 -1.40855,24.24191 0.61211,44.06578 7.03871,69.0539 2.45184,9.53333 4.1639,18.10552 3.80458,19.04931 -0.96983,2.54736 -7.63523,5.61736 -12.19609,5.61736 -2.96363,0 -4.87458,-1.14879 -7.3842,-4.43908 z M 466.6667,281.72838 c -4.4208,-1.60862 -9.50306,-7.98114 -11.36468,-14.24988 -2.36608,-7.96746 -2.78764,-58.47581 -0.55515,-66.51495 3.18643,-11.47427 14.41208,-18.15284 27.27094,-16.22453 12.37026,1.85503 17.89612,9.08113 19.02658,24.88085 l 0.64729,9.04679 h -9.34285 -9.34285 l -0.64812,-6.74515 c -0.76085,-7.9183 -2.66148,-10.55677 -6.06119,-8.41418 -2.02584,1.27674 -2.3412,4.57469 -2.67458,27.97003 -0.43438,30.48379 -0.16809,32.52263 4.24784,32.52263 3.77649,0 4.75274,-2.79208 4.77857,-13.66667 0.0161,-6.78384 -0.28886,-7.66666 -2.64846,-7.66666 -2.39317,0 -2.66667,-0.88889 -2.66667,-8.66667 v -8.66667 h 12 12 v 28 28 h -4.52212 c -3.745,0 -4.66999,-0.58914 -5.38256,-3.42824 l -0.86043,-3.42823 -4.66384,4.0949 c -3.85761,3.38703 -5.75065,4.07671 -10.95078,3.98964 -3.45782,-0.0579 -7.18694,-0.43275 -8.28694,-0.83301 z m 118.47107,-1.74851 c -3.17839,-1.67927 -5.83348,-4.57518 -7.66667,-8.36204 -2.66041,-5.49568 -2.80439,-7.85936 -2.80439,-46.0388 v -40.2457 h 9.33333 9.33334 v 35.9132 c 0,20.78484 0.5633,37.39479 1.33722,39.43034 1.66176,4.37076 5.50579,3.98443 6.80475,-0.68388 0.50905,-1.82948 0.98536,-19.37633 1.05846,-38.993 l 0.1329,-35.66666 h 9.33334 9.33333 v 40.2457 c 0,38.42226 -0.12953,40.51326 -2.85881,46.15121 -2.1267,4.39316 -4.26078,6.5422 -8.33333,8.39168 -7.24435,3.28991 -18.63016,3.22522 -25.00347,-0.14205 z m 122.19562,0.80459 c -4.90358,-2.17941 -9.35163,-6.87539 -11.24452,-11.87127 -0.86488,-2.28266 -1.42134,-16.38939 -1.42008,-36 0.002,-28.06528 0.30436,-32.83934 2.33334,-36.81842 7.89787,-15.48869 33.18169,-15.54269 42.25917,-0.0902 2.47716,4.21682 2.7816,7.29529 3.18726,32.22936 0.28473,17.50059 -0.11596,30.2863 -1.09729,35.01333 -1.76505,8.50219 -6.46314,14.90591 -12.9128,17.60075 -5.48344,2.29112 -15.87766,2.25985 -21.10508,-0.0635 z m 13.33333,-47.35828 c 0,-18.74302 -0.4967,-30.02813 -1.33333,-30.2934 -0.73334,-0.23253 -2.23334,0.14528 -3.33334,0.83957 -1.67057,1.05441 -2,5.71775 -2,28.31166 0,14.87712 0.44819,28.14366 0.99597,29.48119 0.56066,1.36897 2.01757,2.23513 3.33334,1.98174 2.14464,-0.41302 2.33736,-2.91299 2.33736,-30.32076 z m -205.68352,0.24048 0.35017,-47.66667 17.33334,-0.33387 c 18.82133,-0.36254 21.80348,0.38817 26.46054,6.66105 2.1098,2.84182 2.84265,6.27598 3.27671,15.35484 0.59297,12.40241 -1.54488,20.89371 -5.65774,22.47197 -1.68748,0.64754 -1.52473,1.20063 0.9398,3.19393 2.8417,2.29834 3.00033,3.47334 3.40182,25.19809 l 0.42113,22.78732 h -10.05394 -10.05394 l -0.36719,-20.98311 c -0.32818,-18.75349 -0.61513,-21.03071 -2.70053,-21.4311 -2.14402,-0.41164 -2.33333,1.29077 -2.33333,20.98311 v 21.4311 h -10.68351 -10.68351 z m 26.2642,-14.22974 c 0.88071,-1.06119 1.39303,-4.73139 1.16326,-8.33334 -0.35153,-5.5107 -0.84229,-6.49823 -3.41062,-6.86299 -2.84991,-0.40475 -3,0.0122 -3,8.33333 0,9.01919 1.65809,11.1878 5.24736,6.863 z m 93.73581,14.22974 0.35017,-47.66667 h 16.90696 c 18.89149,0 21.75112,1.0702 27.09305,10.13938 3.71357,6.30466 3.88249,31.5742 0.25571,38.25292 -3.43611,6.32759 -9.53762,9.59675 -17.92238,9.60272 l -7,0.005 v 18.66667 18.66666 h -10.01685 -10.01684 z m 26.08351,-9.93334 c 1.96194,-1.96194 2.11128,-13.61996 0.21975,-17.15432 -0.75913,-1.41845 -2.55913,-2.57901 -4,-2.57901 -2.3858,0 -2.61975,0.95256 -2.61975,10.66667 0,9.38271 0.28889,10.66666 2.4,10.66666 1.32,0 3.12,-0.72 4,-1.6 z"
         id="path14" />
      <path
         style="fill:#8eb0cc"
         d="m 287.16277,456.30667 c -9.25066,-3.31938 -13.15663,-6.06768 -17.86902,-12.57296 -7.47382,-10.3173 -7.9604,-14.29434 -7.9604,-65.06418 0,-27.61729 0.5839,-49.33837 1.45262,-54.03772 2.77865,-15.03111 10.98403,-26.22821 22.09969,-30.15734 2.86521,-1.01279 10.43327,-1.80781 17.20907,-1.80781 10.82096,0 12.92122,0.42271 19.94273,4.01384 8.71511,4.45732 15.68919,12.38641 17.90176,20.35316 0.7586,2.73148 1.38261,13.21633 1.3867,23.29966 l 0.007,18.33333 H 325.4977 309.66203 l -0.56609,-15.87751 c -0.6042,-16.94641 -1.73494,-20.12249 -7.16394,-20.12249 -7.24809,0 -7.26531,0.12455 -7.26531,52.55526 0,46.33997 0.10939,48.46377 2.61294,50.72945 1.7576,1.59061 3.70211,2.09132 5.9402,1.52959 4.61037,-1.15713 6.09698,-7.44197 6.10609,-25.8143 l 0.007,-15 h 16.83982 16.83983 l -0.72161,21.66667 c -0.39965,11.99954 -1.48304,23.94304 -2.42817,26.76865 -2.49286,7.45274 -10.69542,16.06726 -18.49287,19.42163 -9.66507,4.1578 -25.31598,4.97361 -34.20759,1.78307 z m 100.17059,1.20416 c -12.55294,-3.30223 -21.27965,-11.20064 -25.83893,-23.38643 -2.70289,-7.22411 -2.82774,-9.8407 -2.82774,-59.26576 0,-57.68876 0.38131,-60.81769 8.57863,-70.39441 7.26591,-8.48858 16.0802,-11.78665 31.51652,-11.79263 11.56624,-0.004 13.49107,0.36979 20.5462,3.99506 9.26123,4.75886 15.72729,13.19877 17.91025,23.37756 0.88933,4.14679 1.44841,25.14803 1.44841,54.40793 0,38.51789 -0.39196,49.15907 -2.04442,55.50328 -4.51395,17.33025 -16.80065,27.0824 -35.37384,28.0768 -5.45329,0.29197 -11.71508,0.0573 -13.91508,-0.5214 z m 15.9244,-32.47419 c 1.78428,-2.54742 2.0756,-9.62977 2.0756,-50.46001 0,-45.47782 -0.11106,-47.59719 -2.61294,-49.86135 -3.77873,-3.41971 -8.75265,-1.78683 -10.58715,3.47563 -1.8698,5.36369 -2.00739,86.60764 -0.1576,93.05746 2.08153,7.25787 7.56277,9.09835 11.28209,3.78827 z m 267.15003,31.85314 c -3.44241,-0.97521 -7.34241,-2.59307 -8.66667,-3.59524 -6.31261,-4.77725 -11.56696,-10.4401 -14.19124,-15.29456 -2.79297,-5.16649 -2.89545,-6.9549 -3.27578,-57.16979 -0.4311,-56.91806 0.007,-61.63201 6.78353,-72.9475 3.3893,-5.65969 5.84964,-7.9438 11.86729,-11.01731 17.99824,-9.19256 43.16052,-4.54085 53.85618,9.95631 5.43824,7.37111 7.21896,15.94387 7.21896,34.75363 v 17.09133 H 707.33339 690.66672 V 343.63 c 0,-17.16277 -1.59872,-21.42607 -7.7647,-20.70613 -6.52068,0.76134 -6.86102,3.33226 -6.88231,51.98932 -0.0112,25.67038 0.5314,46.36258 1.26652,48.29609 1.86967,4.91761 7.76899,6.09185 10.93878,2.17733 2.09501,-2.58723 2.44171,-5.55025 2.44171,-20.86767 v -17.85229 h 16.66667 16.66667 v 20.42467 c 0,23.15395 -1.57349,30.73425 -7.99,38.49188 -8.53044,10.31341 -30.16951,15.67858 -45.60227,11.30658 z M 458.6667,375.29348 v -82.03983 l 16.99202,0.37317 16.99203,0.37317 6.67464,35.09352 6.67465,35.09353 0.35511,-35.42686 0.35511,-35.42686 h 15.97822 15.97823 v 82 82 h -16 c -8.8,0 -16.02899,-0.15 -16.06443,-0.33334 -0.0354,-0.18333 -3.57575,-17.43333 -7.86738,-38.33333 l -7.80296,-38 -0.13262,38.33333 -0.13262,38.33334 h -16 -16 z m 101.33334,0.0627 v -82.02289 h 32.66667 32.66667 v 16 16 h -16 -16 v 15.28967 15.28966 l 15,0.377 15,0.377 0.37565,15.66667 0.37565,15.66667 h -15.37565 -15.37565 v 17.96016 17.96016 l 17,0.37317 17,0.37317 v 16 16 l -33.66667,0.35623 -33.66667,0.35623 z m 195.55557,81.08822 c -0.48889,-0.48889 -0.88889,-30.18889 -0.88889,-66 v -65.11111 h -9.33333 -9.33333 v -16 -16 h 36 36 v 16 16 h -10 -10 v 66 66 h -15.77778 c -8.67778,0 -16.17778,-0.4 -16.66667,-0.88889 z m 63.11112,-0.2405 c 0,-0.62116 1.76784,-19.07116 3.92854,-41 2.16071,-21.92884 5.48303,-56.37061 7.38296,-76.53728 1.89992,-20.16666 3.76153,-38.62874 4.13691,-41.02685 l 0.6825,-4.36018 27.60038,0.36018 27.60038,0.36019 0.90309,8 c 0.4967,4.4 2.1769,21.5 3.73379,38 1.55688,16.5 4.28178,45 6.05533,63.33333 1.77355,18.33333 3.62648,37.98333 4.11762,43.66666 l 0.89299,10.33334 h -15.37459 c -17.0576,0 -16.99323,0.0351 -16.99323,-9.25629 0,-2.77101 -0.38155,-7.82193 -0.8479,-11.22428 l -0.8479,-6.1861 h -9.00945 c -10.32883,0 -10.62808,0.31749 -10.62808,11.27572 0,3.88169 -0.37501,8.93261 -0.83334,11.22428 l -0.83333,4.16667 h -15.83334 c -8.70833,0 -15.83333,-0.50823 -15.83333,-1.12939 z m 50.65928,-52.53728 c -0.004,-0.18333 -1.4955,-17.43333 -3.31431,-38.33333 -1.8188,-20.9 -3.31547,-39.15 -3.32594,-40.55555 -0.0105,-1.40556 -0.30855,-2.26604 -0.6624,-1.91218 -0.69252,0.69251 -5.99628,67.8454 -6.01313,76.13439 l -0.0102,5 h 6.66666 c 3.66667,0 6.66334,-0.15 6.65928,-0.33333 z m -685.17774,44.32639 c -5.14785,-7.10639 -15.41905,-30.76974 -19.56356,-45.0716 -10.11526,-34.90565 -10.75277,-74.53963 -1.75882,-109.34596 18.0341,-69.79141 71.4628,-131.53631 146.1336,-168.87935 42.73073,-21.36973 85.93363,-34.438092 139.70721,-42.259751 18.88942,-2.747568 26.22116,-3.099234 64.00001,-3.069753 42.2817,0.033 53.44103,0.834906 86,6.179964 36.01231,5.911976 77.51151,19.49686 115.06618,37.66723 42.27871,20.45605 77.03433,45.79489 110.33935,80.44372 14.97705,15.58135 31.71096,37.00376 30.13566,38.57906 -0.43936,0.43936 -4.56586,-2.34326 -9.17,-6.18359 -22.39777,-18.68207 -36.24276,-29.32131 -49.03784,-37.6833 -16.45546,-10.75418 -57.67614,-31.4776 -81.33334,-40.88979 -34.7371,-13.82042 -82.93146,-26.41554 -118.66667,-31.01236 -21.12334,-2.71721 -91.09969,-2.37373 -109.39919,0.53698 -63.58675,10.11411 -116.84939,37.83412 -148.58702,77.33066 -15.96244,19.86477 -25.05725,42.82413 -27.0679,68.33146 l -0.94592,12 -8.95954,0.39333 c -8.80427,0.38651 -8.97757,0.32875 -10,-3.33334 -1.99798,-7.15624 -1.06391,-43.07962 1.37457,-52.86457 5.15956,-20.7039 15.08887,-39.7987 30.82177,-59.27252 10.63079,-13.15854 11.3694,-13.36346 -16.00248,4.43966 -49.19898,31.99984 -88.06046,80.86942 -104.41404,131.3041 -6.48242,19.99188 -8.16498,29.32329 -9.36264,51.92501 -1.5498,29.24729 0.43793,49.16526 7.20933,72.24077 4.49191,15.30744 4.38402,19.22225 -0.60076,21.79998 -7.0334,3.63711 -11.57107,2.69467 -15.91796,-3.30604 z M 464.11602,279.78542 c -2.50288,-1.71532 -5.80288,-5.51876 -7.33334,-8.4521 -2.60046,-4.98415 -2.78265,-7.47204 -2.78265,-38 0,-30.55124 0.17736,-32.96857 2.73876,-37.3288 4.59007,-7.8136 10.20493,-10.67119 20.96771,-10.67119 15.84024,0 22.06357,6.4763 23.33789,24.28654 l 0.64729,9.04679 h -9.51249 -9.51249 v -5.74516 c 0,-7.29535 -2.81801,-11.54997 -6.25524,-9.44414 -2.17426,1.33207 -2.44859,4.08589 -2.78937,28 -0.43465,30.50253 -0.17,32.52263 4.2607,32.52263 3.99179,0 4.78391,-2.11541 4.78391,-12.77572 0,-7.66872 -0.27699,-8.55761 -2.66666,-8.55761 -2.39317,0 -2.66667,-0.88889 -2.66667,-8.66667 v -8.66667 h 12 12 v 28 28 h -4.02858 c -3.01314,0 -4.41496,-0.84799 -5.56144,-3.36425 l -1.53286,-3.36424 -3.74239,3.58543 c -5.41096,5.18403 -16.0116,5.94054 -22.35208,1.59516 z m 121.84058,0.21761 c -10.42821,-5.16201 -10.57003,-5.84368 -11.02675,-53.00304 l -0.40354,-41.66666 h 9.40354 9.40353 l 0.0182,36.33333 c 0.01,19.98333 0.38,37.68333 0.82218,39.33333 0.53392,1.99233 1.81913,3 3.82629,3 2.00715,0 3.29236,-1.00767 3.82628,-3 0.44218,-1.65 0.81216,-19.35 0.82218,-39.33333 l 0.0182,-36.33333 h 9.33334 9.33333 v 39.13436 c 0,40.79478 -0.52055,45.36489 -5.85136,51.3708 -6.27464,7.06928 -19.80258,8.97738 -29.52542,4.16454 z m 121.37679,0.85368 c -5.42306,-2.50825 -9.79662,-7.49851 -11.36518,-12.96775 -0.71582,-2.49592 -1.30056,-18.64199 -1.29942,-35.88017 0.002,-35.08437 0.59643,-37.9046 9.19511,-43.64889 3.66328,-2.44722 6.36923,-3.02657 14.13615,-3.02657 7.76693,0 10.47288,0.57935 14.13616,3.02657 8.87411,5.92829 9.30488,8.18222 8.8957,46.54549 -0.34336,32.19214 -0.52951,34.45864 -3.11424,37.91762 -5.08106,6.79965 -9.37158,9.02371 -18.26531,9.4681 -5.12823,0.25623 -9.85317,-0.29393 -12.31897,-1.4344 z m 13.95309,-19.43573 c 0.81347,-1.51999 1.38024,-13.0537 1.38024,-28.08766 0,-25.52664 -0.79557,-30.66666 -4.74658,-30.66666 -3.60512,0 -4.58675,6.56309 -4.58675,30.66666 0,13.10452 0.58515,25.36546 1.30033,27.24654 1.54045,4.05168 4.71941,4.4536 6.65276,0.84112 z M 516.00004,233.20546 V 185.0776 l 18.56123,0.4612 c 17.27885,0.42933 18.78979,0.67604 21.86933,3.57085 8.25091,7.75598 8.33117,37.96847 0.10925,41.12352 -1.95261,0.74929 -1.98906,1.05278 -0.278,2.31459 4.32652,3.19056 5.07153,7.30837 5.07153,28.03124 v 20.75432 h -9.96615 -9.96614 l -0.36719,-21 c -0.36082,-20.63556 -0.41925,-21.00739 -3.36719,-21.42606 l -3,-0.42607 v 21.42607 21.42606 h -9.33334 -9.33333 z m 26,-20.5388 c 0,-7.28117 -0.26956,-8.03829 -3,-8.42607 -2.85265,-0.40514 -3,0.009 -3,8.42607 0,8.41734 0.14735,8.83121 3,8.42607 2.73044,-0.38779 3,-1.14491 3,-8.42607 z m 94.00001,20.55792 v -48.10874 l 16.57421,0.44208 c 18.85932,0.50302 22.05579,1.84342 26.69645,11.19478 3.69042,7.43653 4.26049,25.60821 1.08144,34.47213 -3.10402,8.65472 -7.51795,11.78155 -17.66752,12.51571 l -8.01791,0.57996 v 18.50641 18.50641 h -9.33334 -9.33333 z m 25.64625,-9.73763 c 1.5985,-2.42644 1.1537,-16.15368 -0.57958,-17.88696 -0.88,-0.88 -2.68,-1.6 -4,-1.6 -2.12436,0 -2.4,1.31197 -2.4,11.42319 0,11.23477 0.0495,11.40774 3,10.48695 1.65,-0.51492 3.44081,-1.60535 3.97958,-2.42318 z"
         id="path13" />
      <path
         style="fill:#77a0c1"
         d="m 289.07097,456.80079 c -13.66245,-3.67802 -23.51489,-14.21599 -26.43293,-28.27212 -0.9829,-4.73462 -1.33001,-23.64798 -1.03081,-56.16685 0.43887,-47.69792 0.53545,-49.23953 3.55864,-56.80445 3.91967,-9.80817 9.13141,-15.77322 17.18315,-19.66681 5.17818,-2.50402 8.60256,-3.06766 18.98579,-3.12498 11.25206,-0.0621 13.52191,0.34778 20.30612,3.66699 15.47202,7.56975 19.69243,17.1017 19.69243,44.47609 v 17.75799 h -16 -16 l -0.13291,-13.66666 c -0.19184,-19.72658 -1.96763,-23.76845 -9.60092,-21.85262 -5.59204,1.40352 -6.2513,6.90707 -6.2513,52.18595 0,43.09967 0.76836,50.55585 5.35996,52.01317 8.07024,2.56139 10.60677,-3.57341 10.61773,-25.67984 l 0.007,-15 h 16.10798 16.10797 l -0.44271,23.66667 c -0.4784,25.57418 -1.17103,28.42906 -8.92546,36.78877 -8.9112,9.60679 -27.70435,13.82605 -43.11017,9.6787 z m 98.57502,0.49882 c -12.21867,-3.08237 -20.1375,-9.55549 -25.24114,-20.63296 -3.05186,-6.62405 -3.07149,-7.02464 -3.07149,-62.66666 v -56 l 3.53469,-6.66667 c 7.09159,-13.37524 16.71266,-18.46547 35.13198,-18.58729 15.53286,-0.10274 22.53633,2.4927 30.43648,11.27957 9.36665,10.41796 9.56352,11.89962 9.56352,71.97439 0,52.00589 -0.0381,52.74938 -3.04,59.25992 -4.65567,10.09736 -8.93358,14.87151 -16.75433,18.69785 -8.02837,3.92792 -22.12557,5.46951 -30.55971,3.34185 z m 15.61177,-32.26297 c 1.7845,-2.54773 2.0756,-9.64035 2.0756,-50.57142 0,-41.5023 -0.26871,-47.87681 -2.09523,-49.70333 -2.24692,-2.24692 -5.59265,-2.67676 -8.15469,-1.04768 -3.82404,2.43153 -4.41674,9.35858 -4.41674,51.61911 0,42.26052 0.5927,49.18757 4.41674,51.61911 2.88389,1.83373 6.07128,1.08671 8.17432,-1.91579 z m 268.07562,31.8602 c -12.56692,-4.15802 -20.75946,-11.42665 -24.67524,-21.89251 -2.48383,-6.63861 -2.65705,-10.40097 -2.64227,-57.38769 0.0191,-60.6831 0.84453,-65.52277 13.05692,-76.55593 7.04708,-6.36662 13.4204,-8.31912 26.92726,-8.24932 13.48798,0.0697 22.31936,3.31715 29.74476,10.93766 7.96008,8.16923 9.35439,13.09137 9.98565,35.25094 l 0.56024,19.66666 H 707.47871 690.66672 V 342.8733 c 0,-13.87362 -0.31078,-16.07459 -2.55671,-18.10714 -3.42139,-3.09631 -8.32329,-2.1997 -10.39026,1.90049 -2.40717,4.77503 -2.4094,92.55174 -0.002,97.33333 2.29684,4.56292 7.99361,5.14877 10.82053,1.11278 1.69017,-2.41305 2.12892,-6.68797 2.12892,-20.74278 v -17.70333 h 16.77905 16.77906 l -0.44572,22.33333 c -0.41585,20.8368 -0.68063,22.8343 -3.95131,29.80929 -3.88219,8.27907 -9.56815,13.35535 -18.58597,16.59307 -8.13793,2.92181 -23.30418,3.67966 -29.90845,1.4945 z M 458.6667,374.66665 v -81.33333 h 16.64127 c 16.15029,0 16.66301,0.0885 17.37845,3 0.40546,1.65 3.66934,18 7.25307,36.33333 l 6.51587,33.33334 0.10567,-36.33334 0.10568,-36.33333 h 16 16 v 81.33333 81.33333 h -15.91015 c -14.00476,0 -15.99154,-0.27944 -16.58971,-2.33333 -0.37375,-1.28333 -3.86419,-18.23333 -7.75652,-37.66667 l -7.07696,-35.33333 -0.3541,37.66667 -0.35409,37.66666 H 474.64594 458.6667 Z m 101.33334,0 v -81.33333 h 32.66667 32.66667 v 16 16 h -16 -16 v 16 16 h 15.33333 15.33334 v 15.33333 15.33334 h -15.33334 -15.33333 v 17.99999 18 h 16.66667 16.66666 v 16 16 h -33.33333 -33.33334 z m 194.66668,16 v -65.33333 h -9.33333 -9.33333 v -16.02178 -16.02177 l 35.66667,0.35511 35.66666,0.35511 0.37565,15.66666 0.37565,15.66667 h -10.04232 -10.04231 v 65.33333 65.33333 h -16.66667 -16.66667 z m 64.68429,60.33333 c 0.39368,-2.75 2.22936,-21.2 4.07927,-41 1.84992,-19.79999 4.82318,-51.59999 6.60726,-70.66666 1.78407,-19.06667 3.59225,-37.21666 4.01818,-40.33333 l 0.7744,-5.66667 h 27.29349 c 20.64529,0 27.43078,0.40597 27.85713,1.66667 0.31,0.91667 2.11963,18.46666 4.02139,39 1.90177,20.53333 5.2293,56.22954 7.39452,79.32491 2.16521,23.09537 3.93675,42.14537 3.93675,42.33333 0,0.18796 -6.8358,0.34175 -15.19068,0.34175 -16.68517,0 -16.80932,-0.0634 -16.80932,-8.58962 0,-2.40434 -0.38155,-7.15526 -0.8479,-10.55761 l -0.8479,-6.1861 h -9.00945 c -10.23791,0 -10.62808,0.38948 -10.62808,10.60905 0,3.51502 -0.37501,8.26595 -0.83334,10.55762 l -0.83333,4.16666 h -15.84909 -15.84909 z m 49.97424,-49.33333 c -0.007,-1.98303 -3.1804,-38.40292 -6.10638,-70.07897 -0.46125,-4.99343 -1.08756,-8.83005 -1.3918,-8.52581 -0.48559,0.48559 -2.73265,27.61139 -5.15846,62.27145 -0.43626,6.23333 -1.05015,12.98333 -1.36421,15 -0.56421,3.62305 -0.48417,3.66666 6.729,3.66666 6.0666,0 7.29862,-0.39423 7.29185,-2.33333 z m -682.93353,49.33333 c -3.87047,-4.4673 -8.94582,-14.42844 -14.87213,-29.1888 -15.63408,-38.93897 -19.03433,-79.97237 -10.06141,-121.4185 15.71936,-72.60808 70.23225,-136.96923 149.31975,-176.29575 64.89163,-32.267582 136.80869,-47.248014 215.88878,-44.96996 73.20832,2.108907 130.31053,15.924697 190.71981,46.14436 37.9769,18.99789 66.31077,39.05825 97.07446,68.72866 19.79991,19.09626 43.69042,48.71678 39.23999,48.65149 -0.56883,-0.008 -8.83424,-6.64779 -18.36757,-14.75432 -61.09199,-51.9487 -151.1823,-90.00853 -240.00002,-101.39113 -28.32906,-3.63057 -76.96651,-3.90383 -101.08874,-0.56797 -102.42987,14.16505 -176.89357,71.99868 -182.97317,142.10956 -0.41107,4.74047 -1.04249,10.56904 -1.40317,12.95237 l -0.65578,4.33333 h -8.45081 c -10.01614,0 -9.57523,0.89161 -10.87909,-22 -1.89543,-33.27759 8.83074,-63.7882 32.57746,-92.66666 3.3166,-4.03333 6.96988,-8.49737 8.1184,-9.92009 5.99048,-7.42067 -37.34491,21.7655 -54.18486,36.49322 -23.14129,20.23869 -45.90874,48.80156 -59.4436,74.57488 -14.792,28.16719 -21.32726,51.28481 -23.76808,84.07645 -2.10488,28.27836 0.37404,51.69692 8.05633,76.10886 1.50004,4.76667 2.73508,10.64729 2.74454,13.06804 0.0147,3.76881 -0.64732,4.67902 -4.60664,6.33333 -6.15737,2.57272 -10.52467,2.43772 -12.98445,-0.40137 z M 465.33337,280.33125 c -3.20126,-1.59921 -5.71339,-4.42469 -8,-8.99793 -3.27187,-6.54373 -3.33334,-7.24444 -3.33334,-38 0,-28.67253 0.22646,-31.78474 2.66667,-36.64907 4.04263,-8.05859 9.93907,-11.35092 20.32901,-11.35092 15.91826,0 22.48108,6.57466 23.9406,23.98382 l 0.78383,9.34951 h -9.45704 -9.45704 l -0.40301,-6.86268 c -0.45686,-7.7796 -3.27271,-10.9552 -6.98341,-7.87559 -1.86141,1.54484 -2.09094,5.49271 -1.77843,30.58935 l 0.35883,28.81558 3.18254,0.44999 c 4.39828,0.62189 5.44005,-1.6884 5.46371,-12.11665 0.0184,-8.11792 -0.24094,-9 -2.64625,-9 -2.39317,0 -2.66667,-0.88889 -2.66667,-8.66667 v -8.66667 h 12 12 v 28 28 h -4.02858 c -3.0103,0 -4.41501,-0.8481 -5.55736,-3.35529 -1.5082,-3.31014 -1.56613,-3.32135 -4.30475,-0.83328 -6.67146,6.0611 -14.18679,7.14424 -22.10931,3.1865 z m 123.28326,0.98688 c -5.07683,-1.56387 -10.45857,-7.2696 -12.43517,-13.18377 -0.99343,-2.97245 -1.51475,-18.00091 -1.51475,-43.66667 v -39.13436 h 9.33333 9.33334 v 37.22428 c 0,20.47335 0.36419,38.17335 0.80932,39.33333 0.44512,1.15998 2.18093,2.10905 3.85735,2.10905 1.67641,0 3.41222,-0.94907 3.85734,-2.10905 0.44513,-1.15998 0.80932,-18.85998 0.80932,-39.33333 v -37.22428 h 9.33334 9.33333 v 39.71748 c 0,38.56001 -0.0874,39.88857 -3,45.5886 -4.20497,8.22931 -8.6879,11.11049 -17.98208,11.55707 -4.22653,0.20308 -9.50713,-0.19218 -11.73467,-0.87835 z m 120.24016,0.0569 c -5.28891,-1.6951 -8.81311,-5.12658 -11.68243,-11.37508 -2.15304,-4.68865 -2.45261,-9.12699 -2.47836,-36.71748 -0.0279,-29.92564 0.11014,-31.66062 2.97072,-37.33333 4.20149,-8.33183 9.60211,-10.8753 21.93236,-10.32928 10.87766,0.48171 15.19566,2.81313 19.26572,10.4022 2.20657,4.11439 2.46859,8.00706 2.46859,36.67457 0,30.63097 -0.13476,32.33534 -3,37.94274 -1.65,3.22912 -4.55814,7.00482 -6.46253,8.39045 -3.98342,2.89831 -17.11359,4.23631 -23.01407,2.34521 z m 12.96955,-20.37508 c 1.39659,-5.21136 0.93385,-53.00066 -0.53986,-55.75432 -0.75914,-1.41846 -2.23803,-2.57901 -3.28643,-2.57901 -3.85825,0 -4.66659,5.25951 -4.64846,30.24568 0.0208,28.67839 0.38107,31.08765 4.64846,31.08765 2.00716,0 3.29237,-1.00767 3.82629,-3 z m -205.8263,-27.66667 v -47.99999 h 16.04283 c 24.64448,0 28.82942,3.02133 30.22636,21.822 0.81529,10.97266 -1.20604,20.15812 -4.95056,22.49661 -2.50509,1.56446 -2.49593,1.67551 0.39146,4.74525 2.76422,2.93881 2.9841,4.56791 3.37964,25.03972 l 0.42307,21.89641 h -10.05588 -10.05587 l -0.36719,-21 c -0.36082,-20.63556 -0.41925,-21.00739 -3.36719,-21.42606 l -3,-0.42607 v 21.42607 21.42606 h -9.33334 -9.33333 z m 27.03053,-16.40489 c 0.68167,-2.05602 0.85148,-5.80602 0.37735,-8.33333 -0.70459,-3.75582 -1.45984,-4.59511 -4.13496,-4.59511 -3.14287,0 -3.27292,0.34805 -3.27292,8.7594 0,8.23212 0.1743,8.73376 2.89556,8.33334 1.78611,-0.26282 3.37045,-1.8584 4.13497,-4.1643 z m 92.96948,16.26779 v -48.1371 l 16.56999,0.47044 c 18.79175,0.53351 21.72791,1.76846 26.6588,11.21268 3.8944,7.45904 3.93908,29.4465 0.0757,37.25775 -3.22571,6.52197 -9.58438,9.99508 -18.30449,9.99793 l -6.33333,0.002 v 18.66667 18.66666 h -9.33334 -9.33333 z m 24.57143,-8.6248 c 1.41709,-1.41709 2.09524,-4.56739 2.09524,-9.73333 0,-7.9284 -1.50343,-10.8381 -5.6,-10.8381 -2.12288,0 -2.4,1.30864 -2.4,11.33334 0,11.9552 1.24298,13.89987 5.90476,9.23809 z"
         id="path12" />
      <path
         style="fill:#5a8cb5"
         d="m 290.45468,456.8469 c -12.08143,-2.64103 -20.39901,-9.57218 -26.00113,-21.66711 -2.14281,-4.6263 -2.44597,-10.37176 -2.837,-53.76722 -0.48625,-53.9612 0.37316,-62.28479 7.6089,-73.69437 6.77508,-10.68318 15.88758,-14.91803 32.10791,-14.92151 13.45636,-0.003 22.82416,3.29061 30.12469,10.59115 7.96981,7.9698 9.87531,15.20968 9.87531,37.52082 v 17.75799 h -15.85957 -15.85956 l -0.47377,-15.79561 c -0.53559,-17.85665 -1.68199,-20.59083 -8.3602,-19.93914 -6.75726,0.6594 -7.28679,4.37634 -7.37165,51.74355 -0.0887,49.48534 0.54612,53.24791 8.99278,53.30412 5.06591,0.0337 6.93197,-6.76889 6.93197,-25.27009 v -16.04283 h 16 16 v 21.28332 c 0,25.10087 -1.98442,32.71417 -10.5422,40.44561 -8.74609,7.90156 -26.16046,11.55023 -40.33648,8.45132 z m 98.77261,0.51081 c -12.68124,-2.22563 -21.40757,-9.1017 -27.10481,-21.35773 -2.68874,-5.78407 -2.78912,-7.99133 -2.78912,-61.33333 v -55.33333 l 3.50559,-7.47595 c 3.71073,-7.91342 9.16268,-12.98418 17.89951,-16.64799 6.68368,-2.80282 24.40505,-3.17887 32.94164,-0.69902 8.43861,2.45138 17.1788,10.35284 21.13413,19.10606 l 3.1858,7.05023 v 53.33334 c 0,52.52679 -0.0463,53.44779 -3.05929,60.90242 -3.88427,9.6102 -11.83132,17.65353 -20.01514,20.25762 -8.36048,2.6603 -18.24565,3.50567 -25.69831,2.19768 z m 14.40867,-32.96261 c 2.11572,-3.22619 2.4078,-8.11624 2.78031,-46.54963 0.45674,-47.12371 -0.19144,-53.23629 -5.79437,-54.64253 -4.55487,-1.1432 -7.0961,0.11731 -8.69041,4.31064 -0.85998,2.26194 -1.22112,20.62544 -0.97998,49.83109 0.40942,49.58795 0.56073,50.65531 7.18104,50.65531 1.93987,0 4.0426,-1.37734 5.50341,-3.60488 z m 270.92469,32.93772 c -13.64911,-2.33986 -24.39407,-11.60543 -28.4641,-24.5451 -1.97266,-6.27162 -2.19203,-13.35233 -1.82657,-58.95768 0.40358,-50.36314 0.50137,-52.04352 3.45528,-59.3723 3.53498,-8.77044 11.8927,-17.20641 19.72031,-19.90494 2.87163,-0.98999 10.32115,-1.77362 16.55448,-1.74141 13.82025,0.0714 22.94352,3.55348 30.11842,11.49525 7.6753,8.49563 8.85045,12.74902 9.58532,34.69335 l 0.6586,19.66666 h -16.84784 -16.84783 v -15.90476 c 0,-17.25141 -1.04057,-20.09524 -7.35297,-20.09524 -7.04734,0 -7.3137,1.91806 -7.3137,52.66667 0,50.77618 0.26323,52.66666 7.33334,52.66666 6.02283,0 7.33333,-4.22279 7.33333,-23.63 v -17.70333 h 16.80111 16.80111 l -0.48909,22.33333 c -0.45369,20.71689 -0.74055,22.87285 -3.96333,29.78737 -3.64817,7.82719 -7.89645,11.67348 -17.42448,15.77566 -6.86975,2.95769 -19.43871,4.20857 -27.83139,2.76981 z M 458.6667,374.66665 v -81.33333 h 16.57682 c 14.64284,0 16.65513,0.27223 17.24806,2.33334 0.36918,1.28333 3.55961,17.63333 7.08985,36.33333 l 6.41861,34 0.66667,-36 0.66666,-36 15.66667,-0.37565 15.66667,-0.37565 v 81.37565 81.37564 h -16 c -8.8,0 -16.02899,-0.15 -16.06443,-0.33333 -0.0354,-0.18333 -3.57575,-17.43333 -7.86738,-38.33333 l -7.80296,-38 -0.13262,38.33333 -0.13262,38.33333 h -16 -16 z m 101.33334,0 v -81.33333 h 32.66667 32.66667 v 16 16 h -16 -16 v 16 16 h 15.33333 15.33334 v 15.33333 15.33334 h -15.33334 -15.33333 v 18.66666 18.66667 h 16.66667 16.66666 v 15.33333 15.33333 h -33.33333 -33.33334 z m 196.00002,16 v -65.33333 h -10.04232 -10.04231 l 0.37565,-15.66667 0.37564,-15.66666 h 35.33334 35.33333 l 0.37565,15.66666 0.37565,15.66667 h -10.04232 -10.04231 v 65.33333 65.33333 h -16 -16 z m 63.40721,61 c 0.31508,-2.38333 2.07677,-20.23333 3.91487,-39.66667 1.83809,-19.43333 5.1417,-53.63333 7.34135,-75.99999 2.19965,-22.36667 4.00023,-41.12884 4.0013,-41.69372 10e-4,-0.56488 12.45194,-0.86488 27.66861,-0.66667 l 27.66667,0.36039 0.93022,10 c 0.51162,5.5 2.78666,29.5 5.05564,53.33333 7.64137,80.265 9.3251,97.9986 9.33631,98.33333 0.006,0.18333 -6.81384,0.33333 -15.15551,0.33333 h -15.16666 l -0.83334,-4.16666 c -0.45833,-2.29167 -0.84152,-6.64167 -0.85154,-9.66667 -0.0368,-11.1212 -0.41464,-11.5 -11.47063,-11.5 h -9.84449 l -0.0116,5.66667 c -0.006,3.11666 -0.38995,8.81666 -0.85239,12.66666 l -0.8408,7 h -15.73045 -15.73046 z m 49.92613,-49.47257 c 0,-2.56153 -5.15476,-62.44517 -6.27183,-72.86076 l -0.92949,-8.66667 -0.93613,6.19805 c -0.51486,3.40893 -1.90058,20.20893 -3.07936,37.33333 -1.17879,17.12441 -2.39951,33.08529 -2.71272,35.46862 l -0.56948,4.33333 h 7.2495 c 5.20883,0 7.24951,-0.50834 7.24951,-1.8059 z m -683.74192,47.47257 c -3.5025,-4.95828 -11.09729,-20.35895 -15.41232,-31.25307 -22.6437,-57.16822 -16.20671,-126.4533 16.98845,-182.8567 25.91072,-44.02605 67.32609,-82.24847 117.37548,-108.32632 46.29362,-24.12094 97.3908,-39.104325 157.45695,-46.17158 22.07267,-2.597024 84.53685,-2.146456 108.66667,0.783837 34.05367,4.135432 56.30891,8.99193 86.90354,18.963933 60.13313,19.59977 112.56528,50.62375 156.03984,92.32842 18.31255,17.56703 42.61221,47.08703 40.49935,49.19989 -0.33906,0.33906 -8.30238,-5.81363 -17.69626,-13.67265 -27.97944,-23.40788 -46.99865,-35.99527 -77.25789,-51.13122 -76.08955,-38.06067 -150.83149,-55.96158 -225.82192,-54.08498 -28.00032,0.7007 -43.58331,2.32941 -63.88957,6.67765 -40.45884,8.66358 -71.62461,22.22052 -99.55576,43.30624 -34.37808,25.95261 -55.78415,59.98141 -58.61364,93.17697 -0.40909,4.79944 -1.04037,10.67625 -1.40284,13.05959 l -0.65904,4.33333 h -8.54583 -8.54583 l -1.02572,-5 c -0.56414,-2.75 -1.03523,-12.8 -1.04685,-22.33333 -0.0415,-34.03814 10.15399,-58.64323 38.90365,-93.88722 l 3.71475,-4.55389 -3.33333,1.75115 c -7.14349,3.75281 -25.22683,15.63553 -36.66667,24.09399 -32.12665,23.75401 -60.76062,57.528 -77.93868,91.9293 -13.88597,27.80846 -19.40977,48.25553 -21.61207,80 -1.84163,26.54574 -0.32621,44.12859 5.83043,67.64808 2.25824,8.62688 4.36928,17.80021 4.6912,20.38516 0.53695,4.3116 0.1868,4.88995 -4.23803,7 -6.93753,3.30828 -10.77397,2.92859 -13.80806,-1.36658 z m 279.74189,-169.3354 c -3.03715,-1.51723 -5.71421,-4.40861 -7.66667,-8.28045 -2.86813,-5.68767 -3,-7.38826 -3,-38.68746 0,-29.31635 0.25803,-33.2194 2.46859,-37.34124 4.39244,-8.19018 8.24288,-10.02211 21.06497,-10.02211 11.32166,0 11.34439,0.007 15.75251,4.81705 4.53002,4.94311 7.3806,13.92231 7.3806,23.24858 v 4.60104 h -9.26365 -9.26366 l -0.40301,-6.86268 c -0.45686,-7.7796 -3.27271,-10.9552 -6.98341,-7.87559 -1.86141,1.54484 -2.09094,5.49271 -1.77843,30.58935 l 0.35883,28.81558 3.18254,0.44999 c 4.39828,0.62189 5.44005,-1.6884 5.46371,-12.11665 0.0184,-8.11792 -0.24094,-9 -2.64625,-9 -2.39317,0 -2.66667,-0.88889 -2.66667,-8.66667 v -8.66667 h 12 12 v 28 28 h -4.033 c -3.1342,0 -4.33189,-0.78612 -5.37413,-3.52743 l -1.34112,-3.52742 -2.95921,2.77194 c -6.25077,5.85522 -14.66139,7.09303 -22.29254,3.28084 z m 123.11056,0.95152 c -5.2366,-1.61425 -10.56771,-7.77998 -12.38521,-14.32419 -0.79948,-2.87865 -1.38026,-21.03794 -1.38457,-43.29192 l -0.007,-38.33333 h 9.33333 9.33334 v 37.22428 c 0,20.47335 0.36419,38.17335 0.80932,39.33333 0.44512,1.15998 2.18093,2.10905 3.85735,2.10905 1.67641,0 3.41222,-0.94907 3.85734,-2.10905 0.44513,-1.15998 0.80932,-18.85998 0.80932,-39.33333 v -37.22428 h 9.40446 9.40446 l -0.40446,40.99999 c -0.37675,38.19127 -0.58714,41.31015 -3.07112,45.5273 -4.13721,7.02388 -8.58286,9.6222 -17.46254,10.20622 -4.32894,0.28471 -9.77105,-0.0681 -12.09358,-0.78407 z m 118.17198,-1.61611 c -4.34607,-2.1916 -6.7576,-4.60313 -8.94919,-8.94919 -2.85805,-5.6677 -3,-7.43654 -3,-37.38415 0,-29.97683 0.13916,-31.70633 3,-37.28549 3.91458,-7.63412 9.76034,-10.7145 20.33333,-10.7145 10.573,0 16.41876,3.08038 20.33334,10.7145 2.86084,5.57916 3,7.30866 3,37.28549 0,29.94761 -0.14195,31.71645 -3,37.38415 -3.55656,7.05288 -11.88837,11.94919 -20.33334,11.94919 -2.98922,0 -8.11209,-1.35 -11.38414,-3 z m 15.40335,-18.66667 c 0.40517,-1.65 0.56661,-14.93518 0.35874,-29.52263 -0.34077,-23.91411 -0.61511,-26.66793 -2.78937,-28 -1.93013,-1.1825 -2.79502,-0.9608 -4.33333,1.11081 -1.52124,2.0486 -1.92191,8.07163 -1.92191,28.89094 0,14.46653 0.36419,27.25185 0.80932,28.41183 1.27085,3.31179 7.00377,2.66332 7.87655,-0.89095 z M 516.00004,233.33332 v -47.99999 h 16.04283 c 24.64448,0 28.82942,3.02133 30.22636,21.822 0.83586,11.24947 -1.21328,20.18573 -5.10647,22.26931 -2.74208,1.46751 -2.74145,1.4756 0.37862,4.79293 2.97478,3.16287 3.14571,4.37769 3.54839,25.21934 l 0.42307,21.89641 h -9.32921 -9.32921 l -0.42719,-20.55927 c -0.23495,-11.3076 -0.72719,-20.85056 -1.09386,-21.20658 -0.36666,-0.35601 -1.86666,-0.85434 -3.33333,-1.10739 -2.564,-0.44238 -2.68077,0.37405 -3.03303,21.20658 l -0.36636,21.66666 h -9.3003 -9.30031 z m 27.03053,-16.40489 c 0.68167,-2.05602 0.85148,-5.80602 0.37735,-8.33333 -0.75165,-4.00662 -1.36658,-4.59511 -4.80163,-4.59511 -3.91365,0 -3.93958,0.0512 -3.93958,7.77778 0,4.27778 0.42531,8.20309 0.94513,8.72291 2.03477,2.03477 6.22938,0.015 7.41873,-3.57225 z m 92.96948,16.40489 v -47.99999 l 14.33333,0.0293 c 18.7221,0.0383 24.46893,2.36043 28.70211,11.59795 2.38062,5.19491 2.90706,8.72883 2.84834,19.12024 -0.11561,20.4567 -5.66989,27.63303 -21.55045,27.84393 l -5.66666,0.0753 v 18.66667 18.66666 h -9.33334 -9.33333 z m 24.08766,-8.04691 c 2.10112,-1.12449 2.57901,-2.83372 2.57901,-9.22428 0,-9.94077 -0.84582,-12.06214 -4.80932,-12.06214 -3.11511,0 -3.19068,0.26846 -3.19068,11.33334 0,11.66292 0.50243,12.58541 5.42099,9.95308 z"
         id="path11" />
      <path
         style="fill:#447cab"
         d="m 296.00002,457.80078 c -18.38946,-2.7652 -28.42781,-11.51297 -32.80125,-28.58416 -1.73005,-6.75308 -1.9913,-15.96548 -1.59687,-56.31195 0.4466,-45.68489 0.62566,-48.65117 3.38293,-56.0441 6.46155,-17.32502 16.68317,-24.05513 36.57649,-24.08267 10.57816,-0.0146 12.33515,0.37796 20.66133,4.61681 7.57244,3.85512 9.79841,5.80152 13.26033,11.59489 5.10566,8.54411 5.81708,12.60897 5.83571,33.34372 l 0.0147,16.33333 h -16 -16 l -0.0197,-14.33333 c -0.0239,-17.422 -1.38359,-21 -7.98034,-21 -7.94045,0 -8.07249,0.919 -7.68153,53.46379 0.37864,50.88959 0.42643,51.20287 7.81055,51.20287 6.27043,0 7.87098,-5.00243 7.87098,-24.60045 v -16.73288 h 16 16 v 20.42467 c 0,25.46213 -1.73194,32.46235 -10.00117,40.42322 -7.73002,7.44177 -23.57372,12.05434 -35.33217,10.28624 z m 93.40492,-0.63595 c -14.84069,-2.48972 -24.60061,-11.62092 -28.67157,-26.82458 -1.94443,-7.26179 -2.17934,-14.99079 -1.81661,-59.77149 l 0.4166,-51.43123 4.02999,-7.9021 c 5.23139,-10.25784 12.94356,-15.6519 25.50619,-17.83959 21.45738,-3.73664 38.33389,3.81242 46.06219,20.60415 3.03788,6.60056 3.0683,7.18892 3.0683,59.33333 0,48.26746 -0.21123,53.2736 -2.52891,59.93287 -6.34276,18.22439 -24.31426,27.54782 -46.06618,23.89864 z m 14.05511,-31.96947 c 2.37158,-2.61867 2.56721,-5.73471 2.95067,-46.99999 0.47036,-50.61634 -0.0537,-54.56924 -7.32861,-55.27374 -3.29814,-0.31939 -4.72907,0.31754 -6.38247,2.84095 -1.8707,2.85505 -2.08446,9.0331 -1.74874,50.5419 0.40841,50.49697 0.57083,51.6955 7.00574,51.6955 1.62988,0 4.10642,-1.26208 5.50341,-2.80462 z m 271.07728,32.15902 c -11.67729,-2.04799 -20.7031,-8.64303 -26.2695,-19.19474 l -3.60111,-6.82632 -0.39292,-51.06836 c -0.3319,-43.13854 -0.0651,-52.35172 1.71835,-59.33333 4.17605,-16.34805 13.20229,-24.98857 28.86362,-27.6302 16.35669,-2.75891 31.32747,1.70338 40.10043,11.95261 6.52634,7.62457 7.87259,12.96697 8.67172,34.41261 l 0.708,19 h -16.8346 -16.8346 v -15.42099 c 0,-17.46904 -1.00315,-20.57901 -6.63797,-20.57901 -7.87646,0 -8.0287,0.99864 -8.0287,52.66667 0,50.61051 0.28119,52.66666 7.20229,52.66666 6.38694,0 7.46438,-3.33506 7.46438,-23.10498 v -18.22835 h 16.82052 16.82053 l -0.51265,22.3572 c -0.48988,21.36435 -0.68159,22.7025 -4.31687,30.13274 -2.85463,5.83467 -5.3393,8.74907 -9.95404,11.67565 -9.4916,6.01939 -23.24002,8.58233 -34.98688,6.52214 z M 458.6667,375.29348 v -80.7065 l 16.88947,0.37317 16.88946,0.37317 6.99608,36 6.99607,36 0.11446,-36.33333 0.11447,-36.33333 h 16 16 v 80.66666 80.66666 h -15.88952 -15.88951 l -1.33362,-6.33333 c -0.73349,-3.48333 -4.23321,-20.73333 -7.77716,-38.33333 l -6.44353,-32 -0.35378,38.33333 -0.35378,38.33333 H 474.64626 458.6667 Z m 101.33334,0.0398 v -80.66666 h 32.66667 32.66667 v 15.33333 15.33333 h -16 -16 v 16 16 h 15.377 15.377 l -0.377,15 -0.377,15 -15,0.377 -15,0.377 v 18.623 18.623 h 16.66667 16.66666 v 15.33333 15.33333 h -33.33333 -33.33334 z m 196.00002,15.33333 v -65.33333 h -10 -10 v -15.33333 -15.33333 h 35.33333 35.33334 v 15.33333 15.33333 h -9.33334 -9.33333 v 65.33333 65.33333 h -16 -16 z m 63.39413,61.66667 c 0.36343,-2.01667 2.47278,-22.86667 4.68744,-46.33334 2.21466,-23.46666 5.50009,-57.96666 7.30096,-76.66666 1.80088,-18.7 3.27653,-34.15 3.27923,-34.33333 0.003,-0.18333 12.47574,-0.33333 27.71787,-0.33333 h 27.71295 l 2.93898,32.33333 c 4.90493,53.96185 10.82489,115.9582 11.71329,122.66666 l 0.83873,6.33333 h -15.284 -15.28399 l -0.82645,-5 c -0.45455,-2.75 -0.84125,-7.1 -0.85933,-9.66666 -0.072,-10.21246 -0.56102,-10.66667 -11.48531,-10.66667 h -9.84449 l -0.0116,5.66667 c -0.006,3.11666 -0.38995,8.81666 -0.85239,12.66666 l -0.8408,7 H 834.51434 818.7334 Z m 49.46435,-59.33333 c -2.3318,-29.54135 -6.23798,-70.82396 -6.74984,-71.33581 -0.9126,-0.9126 -1.89083,8.83925 -4.11306,41.00247 -1.14003,16.5 -2.42353,32.55 -2.85223,35.66667 l -0.77946,5.66666 h 7.68143 7.68143 z M 185.4539,449.50261 c -4.71392,-6.62008 -14.32534,-27.85004 -18.80006,-41.52604 -11.27209,-34.45072 -12.5292,-78.31807 -3.28535,-114.64325 17.81708,-70.01507 72.9178,-132.75165 149.2982,-169.98798 77.50403,-37.784105 167.43821,-51.82295 261.33335,-40.794482 61.29466,7.199371 117.85553,26.383972 171.0251,58.009152 37.77568,22.46891 78.82928,58.61253 101.09822,89.00695 11.51557,15.71736 9.92088,15.78001 -8.1233,0.31914 C 802.90823,199.8182 771.44018,180.98324 720.62255,159.63071 638.71424,125.2145 544.9707,114.2718 468.68885,130.22244 c -46.03123,9.62519 -85.87597,29.2566 -114.49683,56.41233 -26.06816,24.7337 -40.50173,51.62908 -42.91762,79.9723 -0.40909,4.79944 -1.04037,10.67625 -1.40284,13.05959 l -0.65904,4.33333 h -8.43958 -8.43958 l -0.86915,-4.33333 c -3.70418,-18.46817 -1.97253,-41.55231 4.59961,-61.31613 6.36736,-19.14799 13.8764,-32.29453 28.29638,-49.54019 4.23143,-5.06061 7.43477,-9.45984 7.11853,-9.77608 -0.31624,-0.31624 -6.51793,3.13427 -13.78153,7.6678 -62.72878,39.15178 -105.71947,94.86182 -120.35578,155.96459 -1.4931,6.23334 -3.40683,21.22694 -4.25273,33.31911 -1.85009,26.44739 -0.28139,44.67237 5.85428,68.01422 5.87622,22.35487 5.95294,23.35152 1.99692,25.9436 -1.82847,1.19806 -5.40121,2.51529 -7.93944,2.92719 -4.04083,0.65574 -4.97965,0.23673 -7.54655,-3.36816 z M 465.31257,280.23467 c -2.8865,-1.51101 -5.78196,-4.64757 -7.64587,-8.28252 -2.87272,-5.60232 -2.99907,-7.23858 -2.97806,-38.56801 0.021,-31.39765 0.14206,-32.92703 3,-37.91201 4.38901,-7.6556 10.31394,-10.39765 21.26877,-9.84316 14.47689,0.73275 20.35032,7.21609 21.93778,24.21585 l 0.82379,8.82184 h -9.52614 -9.52614 v -5.89095 c 0,-7.51006 -1.02308,-10.10905 -3.97939,-10.10905 -4.99065,0 -5.41997,2.7239 -5.0476,32.02496 0.32651,25.6923 0.58664,28.492 2.77175,29.83085 3.97694,2.43674 6.25524,-2.21705 6.25524,-12.77732 0,-8.26012 -0.24612,-9.07849 -2.73029,-9.07849 -2.50261,0 -2.69718,-0.69493 -2.33333,-8.33334 l 0.39696,-8.33333 11.66666,-0.38524 11.66667,-0.38525 v 28.05191 28.05191 h -4.033 c -3.1342,0 -4.33189,-0.78612 -5.37413,-3.52743 l -1.34112,-3.52742 -2.95921,2.77194 c -6.3021,5.9033 -14.80194,7.11628 -22.31334,3.18426 z m 122.85015,0.5997 c -5.64916,-2.04371 -10.29404,-7.35821 -12.09317,-13.83658 -0.81012,-2.91708 -1.39106,-20.67944 -1.3954,-42.66447 l -0.007,-37.66666 h 9.33333 9.33334 v 36.75432 c 0,36.6574 0.5851,41.91234 4.66667,41.91234 4.08156,0 4.66666,-5.25494 4.66666,-41.91234 v -36.75432 h 9.40542 9.40541 l -0.40541,40.33333 c -0.37839,37.64434 -0.58523,40.64446 -3.10259,45 -5.1311,8.87787 -18.62856,12.87835 -29.80682,8.83438 z m 120.504,-0.17163 c -6.43241,-2.27571 -10.72839,-6.93583 -12.59717,-13.66495 -0.77077,-2.77543 -1.39127,-18.29891 -1.39539,-34.91017 -0.007,-27.69503 0.20065,-30.34222 2.79976,-35.71126 5.13079,-10.59879 21.06435,-14.56384 33.34613,-8.29815 9.56086,4.87759 10.44992,8.71959 10.48406,45.30593 0.0279,29.92564 -0.11014,31.66062 -2.97072,37.33333 -5.1794,10.27108 -17.27988,14.32757 -29.66667,9.94527 z m 13.38945,-19.80982 c 0.38487,-1.56911 0.5297,-14.78811 0.32183,-29.37556 -0.32832,-23.04038 -0.66962,-26.70645 -2.59952,-27.92268 -1.61126,-1.01543 -2.80171,-0.91858 -4.33333,0.35256 -3.09972,2.57253 -3.1659,56.18147 -0.0732,59.27419 2.54749,2.54749 5.76297,1.42734 6.6842,-2.32851 z M 516.00004,233.99999 v -47.33333 h 18.36999 c 20.50234,0 23.1276,0.86105 25.42003,8.33747 3.95969,12.91389 3.1613,26.97852 -1.8611,32.78564 l -3.06471,3.54355 2.90123,3.10465 c 2.69164,2.88036 2.9336,4.68641 3.34928,25 l 0.44805,21.89535 h -9.44805 -9.44805 l -0.0204,-19.66666 c -0.0112,-10.81667 -0.46123,-20.3567 -1,-21.20007 -0.53877,-0.84337 -2.17958,-1.74337 -3.64625,-2 -2.56431,-0.44869 -2.68073,0.36505 -3.03303,21.20007 l -0.36636,21.66666 h -9.3003 -9.30031 z m 26.61976,-15.24568 c 1.52856,-2.85614 1.82319,-9.38191 0.57092,-12.64527 -0.47992,-1.25067 -2.37925,-2.10905 -4.66666,-2.10905 h -3.85735 v 8.66667 c 0,8.32256 0.13048,8.66666 3.28642,8.66666 1.88458,0 3.87517,-1.10009 4.66667,-2.57901 z m 93.38025,15.24568 v -47.33333 h 16.06621 c 19.06623,0 22.88023,1.39473 26.67595,9.75509 1.92599,4.24211 2.53962,8.70233 2.56189,18.62107 0.0462,20.59 -4.29981,27.30204 -18.51252,28.5908 l -8.12486,0.73674 v 18.48148 18.48148 h -9.33334 -9.33333 z m 23.93249,-8.63053 c 3.21708,-1.72173 4.52679,-9.37889 2.7395,-16.01638 -1.18704,-4.40832 -2.02067,-5.35309 -4.72338,-5.35309 -3.22963,0 -3.28194,0.18066 -3.28194,11.33334 0,11.58646 0.51938,12.57635 5.26582,10.03613 z"
         id="path10" />
      <path
         style="fill:#004d8d"
         d="m 287.99139,456.08753 c -9.16096,-2.78664 -17.37771,-9.73571 -22.17543,-18.75421 -2.30804,-4.33854 -2.48261,-8.61373 -2.48261,-60.8011 v -56.13443 l 4.66667,-9.14732 c 3.73857,-7.32812 5.95386,-9.94205 11.13893,-13.14336 5.70326,-3.52124 7.94433,-4.06041 18.86197,-4.53791 15.05332,-0.65838 23.8202,1.80957 31.72755,8.93156 8.9567,8.06712 10.74212,13.80359 11.36007,36.49923 l 0.53547,19.66666 H 325.47868 309.33336 V 343.63 c 0,-17.67815 -1.50817,-21.38192 -8.43102,-20.70494 -7.29883,0.71376 -7.52967,2.32051 -7.52967,52.40826 0,50.84362 0.17703,52 7.96069,52 6.81018,0 7.95691,-3.40077 7.98034,-23.66667 l 0.0197,-17 h 16.13193 16.13194 l -0.52168,23 c -0.47181,20.80128 -0.82021,23.61202 -3.64445,29.40215 -5.79327,11.87707 -18.53635,18.34141 -35.77871,18.14991 -5.67547,-0.063 -11.82292,-0.57206 -13.661,-1.13118 z m 95.34197,-0.3031 c -9.11595,-3.38935 -14.59448,-8.40302 -19.33333,-17.69288 l -4.66667,-9.14836 -0.41914,-51.16854 c -0.36158,-44.14031 -0.12149,-52.19244 1.74791,-58.62296 3.33318,-11.46573 7.79722,-17.17349 17.04602,-21.79517 7.12608,-3.56094 9.3997,-4.0232 19.78816,-4.0232 20.8429,0 32.50743,7.09426 38.12555,23.18761 2.12077,6.07505 2.37817,12.2963 2.37817,57.47906 0,56.93874 -0.50251,60.65511 -9.6458,71.337 -7.34889,8.58552 -13.53639,11.10665 -28.3542,11.55305 -7.06281,0.21278 -14.43631,-0.27636 -16.66667,-1.10561 z m 21.40137,-32.40829 c 1.55722,-3.72695 1.92816,-13.23152 1.91231,-49 -0.0217,-49.04994 -0.26959,-50.73919 -7.54933,-51.45108 -8.28614,-0.8103 -8.43101,0.0903 -8.43101,52.40826 0,51.80129 0.13381,52.66666 8.14364,52.66666 3.29544,0 4.32971,-0.80721 5.92439,-4.62384 z m 262.83723,31.90022 c -8.15759,-2.99269 -15.10823,-9.39863 -19.16797,-17.66582 l -3.73727,-7.61056 v -53.33333 c 0,-52.7454 0.0342,-53.41807 3.10358,-61.02079 6.32447,-15.66551 14.3404,-21.12446 32.36079,-22.03812 20.0951,-1.01885 32.1455,4.73222 39.08199,18.65194 3.24833,6.51854 3.45364,8.10398 3.45364,26.66877 v 19.7382 h -15.1929 -15.19289 l -0.47377,-15.79561 c -0.32479,-10.82856 -1.04921,-16.48879 -2.3037,-18 -2.60429,-3.13721 -10.37215,-2.89718 -12.12316,0.37463 -0.87811,1.64075 -1.38025,20.03883 -1.38025,50.57142 0,53.24641 -0.0802,52.75643 8.50058,51.92156 5.77946,-0.5623 7.33032,-5.86933 7.42417,-25.40533 L 692,386.66665 h 16.17316 16.17316 l -0.72161,21.66667 c -0.41525,12.46819 -1.47488,23.9309 -2.49592,27 -2.73767,8.22909 -12.35973,17.31703 -21.03745,19.86968 -8.8089,2.59123 -25.55315,2.629 -32.51943,0.0734 z M 458.6667,375.33332 v -80.66666 h 16.57682 c 14.6552,0 16.65087,0.27048 17.21563,2.33333 0.35135,1.28333 3.46931,17.33333 6.92881,35.66666 3.45951,18.33334 6.81247,33.90334 7.45104,34.6 0.6617,0.72191 1.16104,-14.61749 1.16104,-35.66666 v -36.93333 h 15.33333 15.33334 v 80.66666 80.66666 H 522.8565 507.04629 l -7.85646,-39 -7.85646,-38.99999 -0.35347,38.99999 -0.35347,39 H 474.64656 458.6667 Z m 101.33334,0 v -80.66666 h 32.66667 32.66667 v 15.33333 15.33333 h -16 -16 v 16 16 h 14.66667 14.66666 v 14.66667 14.66666 h -14.66666 -14.66667 v 19.33333 19.33334 h 16.66667 16.66666 v 15.33333 15.33333 h -33.33333 -33.33334 z m 196.00002,15.33333 v -65.33333 h -9.33334 -9.33333 v -15.33333 -15.33333 h 34.66667 34.66667 v 15.33333 15.33333 h -9.33334 -9.33333 v 65.33333 65.33333 h -16 -16 z m 64.00395,61.66667 c 0.002,-2.01667 0.91082,-12.96667 2.01922,-24.33334 1.1084,-11.36666 3.778,-38.96666 5.93245,-61.33333 2.15445,-22.36666 4.63369,-47.71666 5.50943,-56.33333 l 1.59225,-15.66666 h 27.0776 27.07761 l 0.69015,4.33333 c 0.37959,2.38333 2.23506,20.83333 4.12328,41 1.88822,20.16666 4.58076,48.66666 5.98342,63.33333 1.40266,14.66666 2.90836,31.16666 3.34601,36.66666 0.43765,5.5 1.07316,11.35 1.41225,13 0.61067,2.97148 0.47228,3 -14.55649,3 h -15.17301 l -0.8408,-7 c -0.46244,-3.85 -0.84602,-9.55 -0.85239,-12.66666 l -0.0116,-5.66667 h -10.54223 -10.54224 l -0.94966,12.66667 -0.94966,12.66666 h -15.17477 -15.17478 z m 49.32939,-51.99483 c 0,-5.1744 -5.26238,-69.40111 -6.13242,-74.8455 -1.50905,-9.44303 -2.86403,-1.04898 -5.03213,31.17366 -1.23355,18.33334 -2.5953,36.48334 -3.0261,40.33333 l -0.78328,7 h 7.48696 c 7.27615,0 7.48697,-0.1031 7.48697,-3.66149 z m -682.60213,50.12656 c -1.62328,-1.72245 -5.57784,-8.53173 -8.78793,-15.13173 C 145.50327,368.63583 151.78278,288.20089 194.39079,224.65634 246.4233,147.05631 335.0868,98.438269 453.70599,82.462556 c 17.68972,-2.382464 28.18183,-2.916296 57.62738,-2.932046 67.75498,-0.03624 115.9159,8.700348 173.33335,31.44337 44.56818,17.65344 83.25051,41.60157 120.17345,74.39907 19.92407,17.69793 50.39573,53.16898 47.85652,55.70819 -0.3474,0.3474 -4.02095,-2.30374 -8.16344,-5.89142 -31.85328,-27.58712 -54.89997,-43.05293 -89.19986,-59.85885 -39.03073,-19.12389 -68.85343,-30.125 -108.00001,-39.83943 -67.52667,-16.75711 -145.09476,-16.79153 -200.89709,-0.0892 -59.954,17.94503 -106.1306,53.14985 -125.93383,96.01133 -5.19144,11.23619 -9.81289,29.14851 -9.82643,38.08637 -0.005,3.39167 -0.38434,8.04167 -0.84267,10.33333 -0.82704,4.13518 -0.89653,4.16667 -9.19562,4.16667 h -8.36228 l -1.63011,-11.48365 c -5.04219,-35.52089 8.81684,-75.90342 36.68799,-106.90163 3.48731,-3.87858 6.06171,-7.3308 5.72089,-7.67162 -0.83066,-0.83066 -28.64296,16.65789 -39.62315,24.91528 -56.00418,42.11662 -94.48118,104.37589 -100.07814,161.9355 -3.0822,31.69769 -0.70029,60.40694 7.23521,87.20611 4.1468,14.00427 4.17415,15.43906 0.34217,17.94987 -5.7837,3.78962 -10.93695,3.9766 -14.19905,0.5152 z M 468.61662,281.28978 c -5.06453,-1.52463 -10.45333,-7.22555 -12.43517,-13.15542 -0.95577,-2.85977 -1.51475,-15.8663 -1.51475,-35.2457 0,-28.69439 0.18829,-31.10235 2.8642,-36.63006 3.87643,-8.00762 11.54178,-11.56109 22.74717,-10.54502 4.29951,0.38987 9.35197,1.71441 11.22769,2.94342 4.49091,2.94256 8.0826,11.3703 9.2379,21.67633 l 0.93416,8.33333 h -9.43902 -9.43902 l -0.39987,-7.66667 c -0.37853,-7.25739 -0.59558,-7.68918 -4.06589,-8.0885 -5.76436,-0.66328 -6.54244,3.519 -6.07711,32.66525 0.3581,22.42998 0.70727,25.96469 2.76814,28.02283 1.82609,1.82365 2.87933,2.02776 4.66667,0.90435 3.25084,-2.04328 4.18543,-21.83726 1.03107,-21.83726 -1.62411,0 -2.05609,-1.68079 -2.05609,-8 v -8 h 11.33334 11.33333 v 27.33333 27.33333 h -3.83824 c -3.03283,0 -4.19649,-0.8649 -5.54553,-4.12175 -1.31163,-3.16658 -1.95994,-3.67029 -2.79753,-2.17359 -2.96698,5.30169 -13.27109,8.43866 -20.53545,6.2518 z m 122.41682,0.13192 c -6.46307,-1.61016 -10.35695,-4.66255 -13.16742,-10.32186 -2.2853,-4.6018 -2.57233,-8.97371 -2.93903,-44.76652 l -0.4064,-39.66666 h 9.38595 9.38594 l 0.35378,38.18868 c 0.3145,33.9483 0.60046,38.34422 2.57536,39.58935 1.61169,1.01614 2.8013,0.91953 4.33333,-0.35194 1.83601,-1.52376 2.11176,-6.69331 2.11176,-39.58935 v -37.83674 h 9.42247 9.42246 l -0.42246,39.66666 c -0.39668,37.2455 -0.59317,39.99221 -3.21918,45 -1.53819,2.93334 -4.53819,6.33571 -6.66667,7.56083 -4.77372,2.74769 -14.42944,3.95768 -20.16989,2.52755 z m 121.63328,0.34138 c -7.72504,-2.00713 -11.38048,-4.92699 -14.72418,-11.76128 l -3.45268,-7.05702 0.42176,-32.04478 c 0.39386,-29.92474 0.60364,-32.28816 3.17082,-35.72335 5.56883,-7.45175 9.31268,-9.17666 19.91761,-9.17666 10.6062,0 14.35148,1.72602 19.91762,9.17909 2.60626,3.48977 2.74905,5.42474 2.74905,37.25094 0,37.44419 -0.68804,40.91367 -9.14195,46.09857 -4.40885,2.70402 -14.3423,4.40778 -18.85805,3.23449 z m 8.4,-18.02976 c 1.69037,-1.69037 2.40207,-54.75841 0.79068,-58.95761 -0.95752,-2.49528 -4.6652,-2.76787 -6.92401,-0.50905 -1.14334,1.14334 -1.6,9.62963 -1.6,29.73333 0,27.96495 0.50167,31.33333 4.66666,31.33333 0.80667,0 2.18667,-0.72 3.06667,-1.6 z M 516.00004,233.99999 v -47.33333 h 17.82019 c 15.84734,0 18.19844,0.29753 21.23681,2.68752 8.60579,6.76931 9.96925,31.15803 2.17751,38.94977 -3.44405,3.44405 -3.53448,3.79847 -1.27739,5.00643 4.11374,2.2016 5.37622,8.98539 5.37622,28.88857 v 19.13437 h -9.33334 -9.33333 v -20.61975 c 0,-19.02154 -0.1999,-20.72674 -2.57901,-22 -5.22477,-2.79621 -5.42099,-2.04985 -5.42099,20.61975 v 22 h -9.33334 -9.33333 z m 26.4,-14.26667 c 0.88,-0.88 1.6,-4.45888 1.6,-7.95308 0,-5.06811 -0.56043,-6.65303 -2.77085,-7.83601 -5.08107,-2.7193 -6.56248,-0.75975 -6.56248,8.68058 0,8.19826 0.17968,8.70851 3.06666,8.70851 1.68667,0 3.78667,-0.72 4.66667,-1.6 z m 93.60001,14.26667 v -47.33333 h 16.12761 c 17.97235,0 21.6309,1.19898 25.97963,8.51405 1.79839,3.02511 2.6099,7.59183 2.98881,16.81928 0.91826,22.36192 -3.41291,29.74043 -18.45667,31.44243 l -7.97271,0.90201 v 18.49445 18.49444 h -9.33334 -9.33333 z m 25.48119,-9.51148 c 1.07547,-1.29587 1.8077,-5.39658 1.8077,-10.12373 0,-6.30277 -0.53053,-8.33352 -2.56595,-9.82185 -5.28788,-3.86659 -6.05627,-2.58214 -6.05627,10.12373 0,10.85025 0.23985,12 2.5034,12 1.37688,0 3.31688,-0.98017 4.31112,-2.17815 z"
         id="path9" />
    </g>
  </g>
</svg>
