<?xml version="1.0" encoding="utf-8" ?>
<svg xmlns="http://www.w3.org/2000/svg" xmlns:xlink="http://www.w3.org/1999/xlink" width="24" height="24" viewBox="0 0 24 24">
	<defs>
		<clipPath id="clipPath7746694620">
			<path d="M0 0L24 0L24 24L0 24L0 0Z" fill-rule="nonzero" transform="matrix(1 0 0 1 0 0)"/>
		</clipPath>
	</defs>
	<g clip-path="url(#clipPath7746694620)">
		<path d="M11.625 0C5.20514 0 0 5.20702 0 11.625C0 18.0467 5.20514 23.25 11.625 23.25C18.0449 23.25 23.25 18.0467 23.25 11.625C23.25 5.20702 18.0449 0 11.625 0ZM11.625 5.15625C12.7123 5.15625 13.5938 6.03769 13.5938 7.125C13.5938 8.21231 12.7123 9.09375 11.625 9.09375C10.5377 9.09375 9.65625 8.21231 9.65625 7.125C9.65625 6.03769 10.5377 5.15625 11.625 5.15625ZM14.25 17.0625C14.25 17.3731 13.9981 17.625 13.6875 17.625L9.5625 17.625C9.25186 17.625 9 17.3731 9 17.0625L9 15.9375C9 15.6269 9.25186 15.375 9.5625 15.375L10.125 15.375L10.125 12.375L9.5625 12.375C9.25186 12.375 9 12.1231 9 11.8125L9 10.6875C9 10.3769 9.25186 10.125 9.5625 10.125L12.5625 10.125C12.8731 10.125 13.125 10.3769 13.125 10.6875L13.125 15.375L13.6875 15.375C13.9981 15.375 14.25 15.6269 14.25 15.9375L14.25 17.0625Z" fill-rule="nonzero" transform="matrix(1 0 0 1 0.375 0.375)" fill="rgb(107, 114, 128)"/>
	</g>
</svg>
